####
#
# OBJ File Generated by Meshlab
#
####
# Object monkey_250_tris.obj
#
# Vertices: 137
# Faces: 249
#
####
vn -0.898225 -0.559103 0.061753
v -0.970681 0.051272 -0.220272
vn 2.079115 -0.081699 -0.918305
v -0.941655 -0.068498 -0.127720
vn 0.224006 -1.242428 0.753283
v -0.872942 0.008273 -0.175935
vn 1.122574 1.216342 0.958471
v -0.929406 -0.099813 -0.165584
vn 1.120066 -1.179299 -3.628267
v -0.803195 -0.062889 -0.064614
vn -0.765153 -0.481530 0.080932
v -0.899399 -0.042500 -0.075967
vn -1.679931 -1.049331 0.135173
v -0.969152 0.057884 -0.138170
vn -1.967568 -1.234006 0.185309
v -0.913548 -0.033316 -0.155096
vn -1.404415 1.830056 5.147861
v -0.772306 -0.079299 -0.136294
vn 1.996461 4.714654 0.012788
v -0.784996 -0.111127 -0.097159
vn 1.423343 3.839461 3.264075
v -0.554948 -0.245711 -0.044068
vn -1.780284 -4.419769 0.776228
v -0.576711 -0.109135 -0.047259
vn -1.037720 -0.528335 5.851882
v -0.490187 -0.189366 -0.057416
vn 2.363882 2.842471 -2.610632
v -0.549979 -0.257752 0.027883
vn 2.800745 3.362308 2.994437
v -0.281879 -0.389233 -0.024045
vn 0.129149 -2.455433 -4.020001
v -0.498706 -0.175187 0.050621
vn 2.754260 -3.537881 2.434280
v -0.249991 -0.238648 -0.011330
vn 3.388005 3.260940 -3.062769
v -0.221394 -0.428049 0.092022
vn 1.175647 -1.200070 2.815713
v -0.102847 0.988384 -0.074441
vn 3.391333 -2.528064 -3.711772
v -0.189463 -0.232200 0.068314
vn 4.899166 -0.512882 -0.523929
v -0.203733 0.619043 -0.115890
vn 1.347365 -0.154359 3.626006
v -0.158945 0.596110 -0.218711
vn 4.282892 0.231079 3.189104
v -0.115875 -0.718001 -0.148539
vn 5.352846 -0.515748 2.730516
v -0.124279 0.082999 -0.045420
vn 5.833742 -0.287043 -1.511696
v -0.164547 0.360991 -0.030221
vn 2.995814 -0.079315 -5.445687
v -0.168362 -0.366300 0.132511
vn 3.958249 0.058630 -0.498600
v -0.175966 -0.726422 -0.011400
vn 2.080614 -0.614834 -0.639292
v -0.126863 0.999990 -0.031550
vn 4.388319 -2.473257 -2.476135
v -0.114428 0.321595 0.176057
vn 5.498343 0.219867 -1.708430
v -0.154910 0.107002 0.129041
vn 4.386840 1.347740 2.427839
v -0.180389 0.417467 -0.136925
vn 1.937258 2.525612 -2.846309
v -0.071303 -0.838710 0.075427
vn 0.494461 0.499431 -3.667439
v -0.108792 0.813407 0.021294
vn 0.877721 2.769038 1.703006
v -0.042336 -0.894924 -0.167894
vn 1.333616 1.346319 -4.772909
v -0.074311 -0.461758 0.190668
vn 4.406107 2.079221 -2.540088
v -0.072574 -0.564021 0.089101
vn -0.357713 -0.466172 -5.035792
v -0.102850 0.658387 -0.034993
vn 3.157791 -0.498789 4.160626
v -0.169219 -0.211703 -0.167764
vn 2.459467 -3.696790 -3.717477
v -0.084161 0.417589 0.052427
vn -3.090909 -1.153073 4.417572
v -0.082668 0.678086 -0.179981
vn -1.030734 0.028432 -1.916090
v -0.050223 0.985237 0.015847
vn 1.107067 0.148974 5.981644
v -0.052770 0.167483 -0.097739
vn -1.940752 -0.159911 0.718098
v -0.029326 0.999299 -0.049958
vn 4.212580 -0.865762 -3.083216
v -0.047219 0.263655 0.310171
vn 2.774861 1.089093 -5.293919
v -0.086156 -0.031537 0.172061
vn 0.180499 0.956532 1.734944
v -0.003476 -0.720032 -0.268361
vn -3.100204 -0.565700 5.216090
v 0.062113 0.261524 -0.079959
vn 1.255446 -1.571941 5.604639
v -0.062133 -0.094314 -0.172438
vn 1.023813 -0.506766 -1.339174
v -0.005231 -0.899749 -0.019662
vn -5.839181 -0.558758 -0.102089
v -0.057150 0.700383 -0.109781
vn 0.439439 -1.390124 2.294165
v -0.017068 -0.587356 -0.213511
vn 2.473017 -0.806658 3.334403
v -0.011481 -0.547286 -0.042867
vn 1.684090 -0.712116 0.576811
v -0.012488 -0.922165 -0.102103
vn -0.229216 0.689541 -1.441571
v 0.036997 -0.969883 -0.037459
vn -3.600951 -4.287045 -1.385950
v 0.037814 0.424944 0.015592
vn 2.353288 -4.260838 -1.164756
v 0.070537 0.296020 0.686504
vn -5.045968 -1.920464 2.690970
v 0.057590 0.380317 -0.062133
vn 2.656627 2.043573 0.240532
v 0.020203 -0.219523 -0.849228
vn -3.542626 -0.713118 3.677989
v 0.097953 -0.561971 -0.044111
vn 3.157582 -0.729873 -0.790620
v 0.011243 -0.148327 -0.759099
vn 0.087644 4.485062 -3.139442
v 0.058174 0.212654 0.353835
vn 0.688468 1.584430 5.004780
v -0.006596 -0.356722 -0.208580
vn -1.136297 1.310757 -4.833578
v 0.052226 -0.578790 0.162088
vn 2.123942 -0.342904 1.470285
v 0.082134 -0.184494 -0.991101
vn 0.874500 -1.499824 0.606970
v 0.087982 -0.159892 -0.543309
vn -1.845160 0.355581 -5.905836
v 0.079619 -0.243817 0.152189
vn 0.332003 -0.324231 0.198577
v 0.057063 -0.108048 -0.877612
vn -2.104148 -1.395735 5.313168
v 0.095981 -0.063071 -0.157371
vn -0.410813 -3.853263 0.869657
v 0.080583 -0.127838 -0.852191
vn -3.502534 -3.964346 0.198803
v 0.119793 0.295441 0.626646
vn -5.799607 0.852679 1.040585
v 0.120342 0.244193 0.561797
vn -1.375134 3.168038 -1.241879
v 0.084258 -0.901203 0.023631
vn -1.379798 0.328397 1.261497
v 0.091961 -0.916010 -0.122478
vn 4.506637 1.175752 -0.963229
v 0.059188 0.216757 0.767228
vn -0.912265 -0.806644 -0.297040
v 0.182501 -0.137648 -0.995449
vn -3.949786 -1.016946 -3.801435
v 0.130512 0.269193 0.337657
vn 1.332739 1.640950 0.200198
v 0.091698 -0.292730 -0.544903
vn -1.160825 -2.572487 -1.974072
v 0.130753 -0.176441 -0.494261
vn -0.200699 -5.060279 -1.894460
v 0.066813 0.347917 0.313868
vn 3.381204 3.215317 -0.184270
v 0.110989 -0.206556 -0.810399
vn -3.703391 1.761633 -2.482757
v 0.156239 -0.787702 0.047238
vn 1.817886 2.402956 -1.909169
v 0.118138 -0.172509 -0.640480
vn -3.111966 1.094852 2.638691
v 0.164586 -0.739645 -0.158081
vn -2.675320 4.242084 -0.596306
v 0.087384 -0.209848 -0.806207
vn 1.663069 -4.196079 -0.248113
v 0.136626 -0.157486 -0.757283
vn -4.511275 -3.925491 0.755586
v 0.167388 -0.178780 -0.802000
vn -0.308041 0.215091 0.682043
v 0.167637 -0.205333 -0.913573
vn 5.824591 -0.520009 -0.258329
v 0.168481 -0.222983 -0.318202
vn -0.290539 -0.329626 0.065218
v 0.135020 -0.814166 -0.101894
vn 0.360050 5.579267 1.367273
v 0.133897 0.167898 0.799348
vn 1.316388 0.224516 -2.062863
v 0.086408 -0.222435 -0.473997
vn 0.821678 1.741698 0.093974
v 0.153859 0.111716 0.997212
vn 2.111805 -1.123263 4.454376
v 0.134329 -0.281601 -0.189197
vn 0.900912 -1.361481 -1.269681
v 0.141756 0.213269 1.003160
vn -0.532790 4.289322 4.132983
v 0.154003 -0.430233 -0.149188
vn -4.230581 -0.850623 0.346353
v 0.204695 -0.673988 -0.046694
vn -0.896063 1.310180 -0.293662
v 0.160026 -0.243734 -0.990370
vn 1.760103 -0.165349 3.528998
v 0.189800 -0.260892 -0.607332
vn -5.564428 1.055167 -1.194344
v 0.133276 -0.560290 0.038567
vn 4.569706 -3.098960 -1.045977
v 0.171840 -0.156645 -0.374368
vn -3.816323 1.193697 -3.437841
v 0.165788 -0.456959 0.122082
vn -1.517063 0.548962 0.145728
v 0.237451 0.141963 0.986980
vn -5.038209 0.559562 -3.112805
v 0.187591 -0.182488 0.093354
vn 0.210062 -3.180313 -0.390325
v 0.149821 -0.064910 -0.663618
vn 1.086521 -1.959627 -3.784283
v 0.199219 -0.126074 -0.566825
vn 2.960008 4.948485 1.470562
v 0.201384 -0.259906 -0.401025
vn -1.836283 2.824636 -4.740444
v 0.128540 -0.004962 0.216512
vn -5.085672 -1.829310 1.740313
v 0.211862 -0.178513 -0.091144
vn -5.327179 1.891506 1.206743
v 0.227720 0.052117 0.089459
vn -2.631255 -3.541479 -0.382059
v 0.181552 0.262191 0.852103
vn -3.284316 -0.144111 3.970846
v 0.210096 -0.126177 -0.661746
vn -3.483354 -2.683223 4.117012
v 0.186559 0.281070 0.045904
vn -1.017546 -3.081528 -0.526745
v 0.244118 -0.108890 -0.363069
vn -3.901198 3.574415 1.012131
v 0.225662 -0.438538 -0.093410
vn -1.475133 -3.909809 -0.583159
v 0.228286 -0.207645 -0.170544
vn -0.171411 2.257442 5.691607
v 0.274143 0.128534 0.078268
vn -2.766330 4.501351 1.831009
v 0.246348 -0.260164 -0.414766
vn -5.626642 0.564020 -1.001192
v 0.258260 -0.353797 -0.064137
vn -5.208188 0.121508 0.554169
v 0.286841 -0.213030 -0.380307
vn -1.679179 1.391793 -2.131332
v 0.253047 -0.269680 -0.548978
vn -1.124856 5.560237 -0.110860
v 0.256892 0.050551 0.160365
vn -1.409135 2.132172 1.466898
v 0.255645 -0.284189 -0.614146
vn -1.840511 -0.897841 -0.358730
v 0.299649 -0.133403 -0.586960
vn -2.622208 -5.342031 1.161857
v 0.177804 0.337059 0.116342
vn -1.367755 2.472974 -5.231281
v 0.158444 0.131923 0.302823
vn -2.581006 -2.122246 -4.809195
v 0.344445 0.239293 0.239428
vn -2.157024 -4.680774 -1.401280
v 0.268684 0.323318 0.213777
vn 0.334646 2.656855 4.494687
v 0.555328 0.043932 0.055540
vn 0.026159 -2.832052 4.852141
v 0.550634 0.140808 0.062841
vn -1.760147 -2.310504 -5.171841
v 0.540449 0.142874 0.175600
vn -0.963301 -5.722089 -0.213848
v 0.555117 0.170914 0.128625
vn -1.017094 3.037916 -3.586837
v 0.560858 0.020082 0.176947
vn -0.187382 0.595604 1.749113
v 0.986177 0.159259 -0.005167
vn -0.081294 5.112059 0.560022
v 0.544589 -0.000026 0.123480
vn -0.314274 -2.512408 -2.256630
v 0.809908 0.209084 0.133015
vn -1.129128 1.186146 -1.329083
v 1.001724 0.150591 0.066850
vn -0.318815 -1.837498 -0.054993
v 0.986394 0.223140 0.042907
# 137 vertices, 0 vertices normals

f 73//73 89//89 53//53
f 53//53 89//89 49//49
f 54//54 89//89 73//73
f 54//54 49//49 89//89
f 54//54 53//53 49//49
f 78//78 91//91 65//65
f 91//91 77//77 65//65
f 65//65 77//77 98//98
f 78//78 65//65 98//98
f 120//120 77//77 91//91
f 91//91 78//78 120//120
f 122//122 98//98 77//77
f 120//120 78//78 98//98
f 77//77 120//120 122//122
f 122//122 111//111 98//98
f 120//120 98//98 111//111
f 122//122 120//120 123//123
f 111//111 122//122 123//123
f 105//105 123//123 120//120
f 82//82 105//105 120//120
f 123//123 104//104 111//111
f 105//105 104//104 123//123
f 111//111 82//82 120//120
f 82//82 60//60 105//105
f 84//84 82//82 111//111
f 105//105 60//60 104//104
f 69//69 84//84 111//111
f 111//111 104//104 69//69
f 58//58 60//60 82//82
f 82//82 84//84 58//58
f 104//104 60//60 69//69
f 84//84 69//69 75//75
f 64//64 69//69 60//60
f 58//58 84//84 97//97
f 58//58 64//64 60//60
f 75//75 69//69 64//64
f 97//97 84//84 75//75
f 97//97 64//64 58//58
f 8//8 7//7 1//1
f 8//8 6//6 7//7
f 94//94 110//110 102//102
f 110//110 56//56 70//70
f 94//94 56//56 110//110
f 70//70 56//56 79//79
f 44//44 56//56 74//74
f 44//44 74//74 90//90
f 70//70 79//79 71//71
f 13//13 12//12 9//9
f 5//5 16//16 14//14
f 14//14 11//11 10//10
f 10//10 11//11 9//9
f 9//9 11//11 13//13
f 85//85 100//100 80//80
f 106//106 117//117 80//80
f 113//113 100//100 85//85
f 86//86 119//119 113//113
f 80//80 100//100 88//88
f 80//80 88//88 106//106
f 61//61 44//44 90//90
f 61//61 90//90 71//71
f 79//79 76//76 71//71
f 71//71 76//76 61//61
f 44//44 79//79 56//56
f 36//36 32//32 27//27
f 119//119 86//86 117//117
f 93//93 88//88 115//115
f 66//66 101//101 63//63
f 118//118 108//108 115//115
f 67//67 87//87 86//86
f 67//67 80//80 87//87
f 80//80 117//117 87//87
f 67//67 86//86 85//85
f 83//83 46//46 34//34
f 23//23 83//83 51//51
f 96//96 83//83 81//81
f 81//81 83//83 72//72
f 63//63 81//81 72//72
f 96//96 81//81 99//99
f 63//63 99//99 81//81
f 129//129 128//128 133//133
f 135//135 131//131 129//129
f 135//135 130//130 131//131
f 137//137 136//136 135//135
f 130//130 127//127 131//131
f 127//127 124//124 131//131
f 126//126 127//127 130//130
f 110//110 70//70 71//71
f 110//110 71//71 102//102
f 102//102 71//71 90//90
f 126//126 76//76 127//127
f 76//76 79//79 127//127
f 79//79 124//124 127//127
f 124//124 79//79 55//55
f 107//107 125//125 121//121
f 107//107 121//121 109//109
f 99//99 59//59 96//96
f 83//83 59//59 51//51
f 83//83 96//96 59//59
f 52//52 51//51 59//59
f 95//95 52//52 59//59
f 118//118 119//119 114//114
f 85//85 80//80 67//67
f 117//117 86//86 87//87
f 119//119 118//118 113//113
f 113//113 118//118 115//115
f 93//93 95//95 88//88
f 95//95 106//106 88//88
f 118//118 114//114 101//101
f 93//93 62//62 95//95
f 68//68 62//62 93//93
f 103//103 118//118 101//101
f 108//108 118//118 103//103
f 108//108 93//93 115//115
f 108//108 68//68 93//93
f 115//115 100//100 113//113
f 115//115 88//88 100//100
f 108//108 109//109 112//112
f 103//103 109//109 108//108
f 109//109 103//103 107//107
f 108//108 112//112 68//68
f 101//101 114//114 99//99
f 76//76 126//126 125//125
f 66//66 107//107 103//103
f 66//66 45//45 107//107
f 61//61 107//107 45//45
f 92//92 102//102 90//90
f 72//72 32//32 63//63
f 61//61 76//76 125//125
f 66//66 103//103 101//101
f 116//116 112//112 109//109
f 121//121 125//125 132//132
f 116//116 109//109 121//121
f 132//132 126//126 130//130
f 126//126 132//132 125//125
f 124//124 129//129 131//131
f 124//124 112//112 129//129
f 129//129 112//112 116//116
f 116//116 121//121 128//128
f 134//134 121//121 132//132
f 99//99 114//114 95//95
f 95//95 114//114 117//117
f 114//114 119//119 117//117
f 62//62 68//68 48//48
f 95//95 62//62 52//52
f 95//95 117//117 106//106
f 130//130 135//135 132//132
f 128//128 134//134 133//133
f 135//135 129//129 137//137
f 136//136 132//132 135//135
f 134//134 136//136 133//133
f 132//132 136//136 134//134
f 113//113 85//85 86//86
f 4//4 3//3 2//2
f 5//5 3//3 12//12
f 3//3 4//4 9//9
f 34//34 46//46 23//23
f 23//23 51//51 27//27
f 34//34 23//23 27//27
f 34//34 27//27 32//32
f 34//34 32//32 72//72
f 39//39 25//25 21//21
f 25//25 39//39 29//29
f 56//56 94//94 74//74
f 55//55 79//79 39//39
f 79//79 44//44 29//29
f 79//79 29//29 39//39
f 55//55 57//57 112//112
f 47//47 22//22 42//42
f 55//55 112//112 124//124
f 31//31 42//42 22//22
f 112//112 57//57 47//47
f 36//36 27//27 51//51
f 36//36 51//51 52//52
f 15//15 18//18 36//36
f 15//15 36//36 52//52
f 15//15 62//62 38//38
f 9//9 4//4 10//10
f 2//2 10//10 4//4
f 5//5 12//12 16//16
f 3//3 9//9 12//12
f 14//14 18//18 15//15
f 11//11 15//15 13//13
f 15//15 17//17 13//13
f 12//12 13//13 17//17
f 18//18 14//14 16//16
f 16//16 26//26 18//18
f 12//12 17//17 16//16
f 26//26 35//35 18//18
f 15//15 38//38 17//17
f 16//16 17//17 20//20
f 16//16 20//20 26//26
f 17//17 24//24 20//20
f 24//24 38//38 48//48
f 42//42 24//24 48//48
f 42//42 48//48 68//68
f 24//24 17//17 38//38
f 32//32 36//36 63//63
f 35//35 63//63 36//36
f 18//18 35//35 36//36
f 35//35 45//45 66//66
f 35//35 66//66 63//63
f 25//25 24//24 31//31
f 24//24 42//42 31//31
f 29//29 44//44 30//30
f 30//30 24//24 25//25
f 20//20 24//24 30//30
f 20//20 30//30 45//45
f 20//20 45//45 26//26
f 92//92 74//74 94//94
f 92//92 90//90 74//74
f 44//44 61//61 45//45
f 30//30 44//44 45//45
f 25//25 29//29 30//30
f 55//55 39//39 37//37
f 42//42 68//68 47//47
f 112//112 47//47 68//68
f 25//25 31//31 21//21
f 57//57 55//55 50//50
f 62//62 15//15 52//52
f 39//39 21//21 37//37
f 40//40 47//47 57//57
f 40//40 57//57 50//50
f 40//40 22//22 47//47
f 31//31 22//22 21//21
f 55//55 37//37 50//50
f 62//62 48//48 38//38
f 37//37 21//21 33//33
f 14//14 15//15 11//11
f 37//37 33//33 41//41
f 50//50 37//37 41//41
f 22//22 19//19 21//21
f 43//43 50//50 41//41
f 22//22 40//40 19//19
f 43//43 40//40 50//50
f 33//33 21//21 28//28
f 28//28 41//41 33//33
f 19//19 40//40 43//43
f 10//10 5//5 14//14
f 2//2 3//3 5//5
f 83//83 34//34 72//72
f 99//99 95//95 59//59
f 99//99 63//63 101//101
f 125//125 107//107 61//61
f 121//121 134//134 128//128
f 129//129 116//116 128//128
f 10//10 2//2 5//5
f 45//45 35//35 26//26
f 28//28 21//21 19//19
f 129//129 133//133 137//137
# 249 faces, 0 coords texture

# End of File
