####
#
# OBJ File Generated by Meshlab
#
####
# Object monkey_150_tris.obj
#
# Vertices: 80
# Faces: 149
#
####
vn 0.143049 -2.440629 0.825662
v -0.835741 -0.017172 -0.137327
vn 1.731868 -0.246854 -0.978971
v -0.876197 -0.050892 -0.101133
vn 1.217155 0.423211 1.505549
v -0.865635 -0.064727 -0.158974
vn 1.446331 3.850923 3.224247
v -0.554948 -0.245711 -0.044068
vn -0.710909 1.050584 6.133859
v -0.490187 -0.189366 -0.057416
vn 2.421846 2.818537 -2.579970
v -0.549979 -0.257752 0.027882
vn 2.775746 3.281652 2.553545
v -0.281879 -0.389233 -0.024045
vn 0.131467 -2.589621 -3.715049
v -0.498706 -0.175187 0.050621
vn 2.571382 -3.486843 2.778897
v -0.249991 -0.238649 -0.011330
vn 3.786849 -2.296635 -3.596356
v -0.189463 -0.232201 0.068315
vn 4.963529 -0.519571 -0.537344
v -0.203733 0.619042 -0.115890
vn 1.317062 -0.130103 3.634007
v -0.158945 0.596110 -0.218712
vn 5.522445 -0.676100 2.469726
v -0.124280 0.082999 -0.045420
vn 3.369422 2.078392 -3.845862
v -0.205140 -0.409271 0.113291
vn 2.921177 -0.095180 0.952406
v -0.168687 -0.731405 -0.056446
vn 1.104565 -0.299306 -0.183462
v -0.130208 0.998987 -0.052675
vn 5.467812 0.063874 -1.643858
v -0.154910 0.107002 0.129041
vn 4.357048 1.335142 2.178961
v -0.180389 0.417467 -0.136925
vn 2.021073 2.357941 -2.717396
v -0.071303 -0.838711 0.075427
vn 1.143887 -0.001036 -1.179894
v -0.082977 0.922072 0.045027
vn 1.268416 1.315244 -4.708960
v -0.074311 -0.461758 0.190668
vn 4.505412 2.081884 -2.442312
v -0.072574 -0.564021 0.089101
vn 0.002831 -0.872187 -5.159944
v -0.102850 0.658387 -0.034993
vn 4.401965 -1.411269 -2.643915
v -0.150486 0.392409 0.018623
vn -2.844806 -1.413930 4.432822
v -0.082668 0.678086 -0.179981
vn 1.160809 0.025001 5.982784
v -0.052770 0.167483 -0.097739
vn -4.877972 -1.175812 0.839548
v -0.064341 0.745466 -0.114196
vn 4.256957 -0.989593 -2.889846
v -0.047219 0.263655 0.310171
vn 2.701305 1.155284 -5.287347
v -0.086155 -0.031537 0.172062
vn 0.523247 1.145747 1.548736
v -0.042315 -0.892051 -0.170421
vn 2.352912 -0.560986 4.586042
v -0.120516 -0.200564 -0.193625
vn 1.506826 1.898819 5.019378
v -0.001344 -0.526264 -0.077458
vn -3.128186 -4.114624 -1.348182
v 0.037815 0.424944 0.015592
vn 0.212029 -1.485900 -0.639396
v 0.133288 0.255414 0.962383
vn -3.608279 -1.188452 4.401217
v 0.066841 0.318916 -0.076447
vn -5.271201 0.605899 -0.029273
v 0.143960 -0.564895 0.008605
vn 0.594711 1.507812 5.046659
v -0.006596 -0.356723 -0.208580
vn -1.313752 1.127724 -4.667259
v 0.052227 -0.578792 0.162088
vn -1.991824 -1.455369 5.331453
v 0.095981 -0.063071 -0.157371
vn -3.279927 -3.468004 -0.037360
v 0.149819 0.281389 0.764245
vn -6.160663 -0.157398 0.981982
v 0.120342 0.244193 0.561797
vn -1.346768 3.139761 -1.163782
v 0.084259 -0.901202 0.023630
vn 1.861390 1.021350 -0.285239
v 0.104142 0.169889 0.962167
vn -3.537157 -2.161312 -4.034820
v 0.153530 0.285782 0.317889
vn 0.048925 -5.198931 -1.707684
v 0.066813 0.347917 0.313869
vn -3.748161 1.535582 -2.464555
v 0.156239 -0.787702 0.047238
vn 1.744409 -4.213563 0.457856
v 0.136626 -0.157486 -0.757283
vn -1.977484 -0.288833 1.520996
v 0.167388 -0.178780 -0.802000
vn 0.118860 0.024791 0.301958
v 0.110715 -0.189712 -0.859385
vn -0.979877 0.969439 0.047618
v 0.197470 0.141905 0.936394
vn -1.995216 -3.145416 1.717853
v 0.194830 -0.236945 -0.165438
vn 0.843921 0.024380 0.342351
v -0.000153 -0.167416 -0.826570
vn -1.438405 3.733840 4.001020
v 0.154004 -0.430233 -0.149187
vn -2.288246 -0.049465 1.866760
v 0.191382 -0.717762 -0.116487
vn -0.103814 0.342903 0.565808
v 0.103140 -0.221544 -0.879687
vn 4.929680 -1.500508 -0.420830
v 0.161152 -0.193099 -0.343461
vn -3.800969 0.613508 -3.807101
v 0.174582 -0.330645 0.119321
vn 0.561769 -2.910357 0.243539
v 0.102378 -0.085033 -0.735137
vn 1.844090 -1.610882 -2.324116
v 0.177752 -0.148726 -0.568844
vn 3.322311 4.487432 1.662040
v 0.201384 -0.259906 -0.401025
vn -1.870189 2.025607 -5.161589
v 0.128540 -0.004961 0.216511
vn -5.503254 -1.283045 1.537722
v 0.211861 -0.178514 -0.091144
vn -3.670226 0.993051 3.394321
v 0.210096 -0.126177 -0.661746
vn -0.746130 -2.804469 -0.511415
v 0.244118 -0.108890 -0.363069
vn -4.622584 1.219504 -0.171820
v 0.264351 -0.371486 -0.087420
vn 1.671058 2.044496 5.294915
v 0.274143 0.128534 0.078268
vn -2.733740 4.509736 1.818827
v 0.246348 -0.260164 -0.414766
vn -5.185458 0.131798 0.512746
v 0.286841 -0.213030 -0.380307
vn -3.005399 3.331656 -0.681797
v 0.227592 0.058671 0.143561
vn 0.115204 0.212054 -0.096697
v 0.149746 -0.267793 -0.541051
vn -0.623756 -0.141014 -0.111622
v 0.299649 -0.133403 -0.586960
vn -3.164640 -3.683129 2.527667
v 0.182427 0.319706 0.055841
vn -0.170351 4.165179 -3.474775
v 0.069319 0.187172 0.347152
vn -2.037496 -4.728001 -1.301628
v 0.268684 0.323318 0.213777
vn 0.037285 3.296668 2.910779
v 0.561208 0.024770 0.067201
vn -1.764941 -3.573024 -2.523049
v 0.551740 0.177646 0.158988
vn -0.803308 2.913819 -2.568998
v 0.560859 0.020081 0.176946
vn -0.589301 0.931067 -0.774106
v 0.996091 0.130159 0.014312
vn -0.626888 0.489154 -1.375826
v 0.973671 0.225372 0.090196
vn 0.114384 -2.359432 4.461834
v 0.583891 0.139316 0.059608
# 80 vertices, 0 vertices normals

f 63//63 70//70 71//71
f 59//59 71//71 70//70
f 71//71 58//58 63//63
f 59//59 58//58 71//71
f 63//63 59//59 70//70
f 55//55 59//59 63//63
f 59//59 52//52 58//58
f 58//58 55//55 63//63
f 59//59 55//55 52//52
f 55//55 58//58 52//52
f 34//34 40//40 50//50
f 40//40 34//34 45//45
f 28//28 34//34 43//43
f 28//28 43//43 50//50
f 40//40 45//45 41//41
f 5//5 1//1 3//3
f 2//2 8//8 6//6
f 6//6 4//4 2//2
f 2//2 4//4 3//3
f 3//3 4//4 5//5
f 15//15 30//30 54//54
f 47//47 56//56 49//49
f 60//60 67//67 49//49
f 64//64 56//56 47//47
f 48//48 68//68 64//64
f 49//49 56//56 60//60
f 73//73 28//28 50//50
f 73//73 50//50 41//41
f 45//45 44//44 41//41
f 41//41 44//44 73//73
f 28//28 45//45 34//34
f 22//22 19//19 15//15
f 68//68 48//48 67//67
f 65//65 62//62 51//51
f 49//49 48//48 47//47
f 15//15 54//54 32//32
f 46//46 54//54 42//42
f 38//38 46//46 42//42
f 54//54 46//46 36//36
f 38//38 36//36 46//46
f 80//80 75//75 78//78
f 79//79 76//76 80//80
f 74//74 72//72 76//76
f 44//44 74//74 76//76
f 40//40 41//41 50//50
f 44//44 45//45 74//74
f 45//45 72//72 74//74
f 72//72 45//45 33//33
f 61//61 73//73 69//69
f 54//54 36//36 32//32
f 53//53 32//32 36//36
f 67//67 48//48 49//49
f 68//68 65//65 64//64
f 64//64 65//65 51//51
f 51//51 53//53 56//56
f 53//53 60//60 56//56
f 51//51 37//37 53//53
f 39//39 37//37 51//51
f 62//62 65//65 57//57
f 62//62 39//39 51//51
f 51//51 56//56 64//64
f 62//62 69//69 72//72
f 57//57 69//69 62//62
f 69//69 57//57 61//61
f 62//62 72//72 39//39
f 57//57 65//65 36//36
f 57//57 29//29 61//61
f 73//73 61//61 29//29
f 42//42 19//19 38//38
f 66//66 72//72 69//69
f 69//69 73//73 77//77
f 77//77 44//44 76//76
f 44//44 77//77 73//73
f 72//72 80//80 76//76
f 80//80 72//72 66//66
f 66//66 69//69 75//75
f 75//75 69//69 77//77
f 36//36 65//65 53//53
f 53//53 65//65 67//67
f 65//65 68//68 67//67
f 37//37 39//39 31//31
f 53//53 37//37 32//32
f 53//53 67//67 60//60
f 76//76 79//79 77//77
f 78//78 75//75 77//77
f 64//64 47//47 48//48
f 3//3 1//1 2//2
f 30//30 15//15 19//19
f 30//30 19//19 42//42
f 33//33 45//45 24//24
f 45//45 28//28 24//24
f 33//33 35//35 72//72
f 35//35 12//12 26//26
f 18//18 26//26 12//12
f 22//22 15//15 32//32
f 7//7 14//14 22//22
f 7//7 22//22 32//32
f 7//7 37//37 31//31
f 2//2 1//1 8//8
f 6//6 14//14 7//7
f 4//4 7//7 5//5
f 7//7 9//9 5//5
f 1//1 5//5 9//9
f 14//14 6//6 8//8
f 1//1 9//9 8//8
f 7//7 31//31 9//9
f 8//8 9//9 10//10
f 8//8 10//10 14//14
f 9//9 13//13 10//10
f 26//26 13//13 31//31
f 26//26 31//31 39//39
f 13//13 9//9 31//31
f 19//19 22//22 38//38
f 21//21 38//38 22//22
f 14//14 21//21 22//22
f 21//21 29//29 57//57
f 21//21 57//57 38//38
f 24//24 13//13 18//18
f 13//13 26//26 18//18
f 24//24 28//28 17//17
f 17//17 13//13 24//24
f 10//10 13//13 17//17
f 10//10 17//17 29//29
f 10//10 29//29 14//14
f 28//28 73//73 29//29
f 17//17 28//28 29//29
f 33//33 24//24 23//23
f 26//26 39//39 35//35
f 72//72 35//35 39//39
f 24//24 18//18 11//11
f 35//35 33//33 27//27
f 37//37 7//7 32//32
f 24//24 11//11 23//23
f 25//25 35//35 27//27
f 25//25 12//12 35//35
f 18//18 12//12 11//11
f 33//33 23//23 27//27
f 23//23 11//11 20//20
f 6//6 7//7 4//4
f 27//27 23//23 20//20
f 12//12 16//16 11//11
f 12//12 25//25 16//16
f 20//20 11//11 16//16
f 16//16 25//25 27//27
f 54//54 30//30 42//42
f 36//36 38//38 57//57
f 80//80 66//66 75//75
f 29//29 21//21 14//14
f 78//78 77//77 79//79
# 149 faces, 0 coords texture

# End of File
