# Rhino

v -1 -1 -0.4142
v -1 -1 0.4142
v -1 -0.8757 -0.3627
v -1 -0.8757 0.3627
v -1 -0.4142 -1
v -1 -0.4142 1
v -1 -0.3627 -0.8757
v -1 -0.3627 0.8757
v -1 0.3627 -0.8757
v -1 0.3627 0.8757
v -1 0.4142 -1
v -1 0.4142 1
v -1 0.8757 -0.3627
v -1 0.8757 0.3627
v -1 1 -0.4142
v -1 1 0.4142
v -0.8985 -0.8985 -0.6171
v -0.8985 -0.8985 0.6171
v -0.8985 -0.6171 -0.8985
v -0.8985 -0.6171 0.8985
v -0.8985 0.6171 -0.8985
v -0.8985 0.6171 0.8985
v -0.8985 0.8985 -0.6171
v -0.8985 0.8985 0.6171
v -0.8757 -1 -0.3627
v -0.8757 -1 0.3627
v -0.8757 -0.3627 -1
v -0.8757 -0.3627 1
v -0.8757 0.3627 -1
v -0.8757 0.3627 1
v -0.8757 1 -0.3627
v -0.8757 1 0.3627
v -0.6171 -0.8985 -0.8985
v -0.6171 -0.8985 0.8985
v -0.6171 0.8985 -0.8985
v -0.6171 0.8985 0.8985
v -0.4142 -1 -1
v -0.4142 -1 1
v -0.4142 1 -1
v -0.4142 1 1
v -0.3627 -1 -0.8757
v -0.3627 -1 0.8757
v -0.3627 -0.8757 -1
v -0.3627 -0.8757 1
v -0.3627 0.8757 -1
v -0.3627 0.8757 1
v -0.3627 1 -0.8757
v -0.3627 1 0.8757
v 0.3627 -1 -0.8757
v 0.3627 -1 0.8757
v 0.3627 -0.8757 -1
v 0.3627 -0.8757 1
v 0.3627 0.8757 -1
v 0.3627 0.8757 1
v 0.3627 1 -0.8757
v 0.3627 1 0.8757
v 0.4142 -1 -1
v 0.4142 -1 1
v 0.4142 1 -1
v 0.4142 1 1
v 0.6171 -0.8985 -0.8985
v 0.6171 -0.8985 0.8985
v 0.6171 0.8985 -0.8985
v 0.6171 0.8985 0.8985
v 0.8757 -1 -0.3627
v 0.8757 -1 0.3627
v 0.8757 -0.3627 -1
v 0.8757 -0.3627 1
v 0.8757 0.3627 -1
v 0.8757 0.3627 1
v 0.8757 1 -0.3627
v 0.8757 1 0.3627
v 0.8985 -0.8985 -0.6171
v 0.8985 -0.8985 0.6171
v 0.8985 -0.6171 -0.8985
v 0.8985 -0.6171 0.8985
v 0.8985 0.6171 -0.8985
v 0.8985 0.6171 0.8985
v 0.8985 0.8985 -0.6171
v 0.8985 0.8985 0.6171
v 1 -1 -0.4142
v 1 -1 0.4142
v 1 -0.8757 -0.3627
v 1 -0.8757 0.3627
v 1 -0.4142 -1
v 1 -0.4142 1
v 1 -0.3627 -0.8757
v 1 -0.3627 0.8757
v 1 0.3627 -0.8757
v 1 0.3627 0.8757
v 1 0.4142 -1
v 1 0.4142 1
v 1 0.8757 -0.3627
v 1 0.8757 0.3627
v 1 1 -0.4142
v 1 1 0.4142
vn 0.2506 0.6846 -0.6846
vn -0.2597 -0.6269 -0.7345
vn 0.2597 -0.6269 -0.7345
vn -0.2506 0.6846 -0.6846
vn 0.6846 0.2506 -0.6846
vn -0.6269 -0.2597 -0.7345
vn 0.6846 -0.2506 -0.6846
vn -0.6269 0.2597 -0.7345
vn 0.2506 -0.6846 -0.6846
vn -0.2597 0.6269 -0.7345
vn -0.2506 -0.6846 -0.6846
vn 0.2597 0.6269 -0.7345
vn -0.6846 -0.2506 -0.6846
vn 0.6269 0.2597 -0.7345
vn 0.6269 -0.2597 -0.7345
vn -0.6846 0.2506 -0.6846
vn -0.2506 0.6846 0.6846
vn 0.2597 -0.6269 0.7345
vn -0.2597 -0.6269 0.7345
vn 0.2506 0.6846 0.6846
vn 0.6269 -0.2597 0.7345
vn -0.6846 0.2506 0.6846
vn 0.6269 0.2597 0.7345
vn -0.6846 -0.2506 0.6846
vn 0.2597 0.6269 0.7345
vn -0.2506 -0.6846 0.6846
vn -0.2597 0.6269 0.7345
vn 0.2506 -0.6846 0.6846
vn -0.6269 0.2597 0.7345
vn 0.6846 -0.2506 0.6846
vn -0.6269 -0.2597 0.7345
vn 0.6846 0.2506 0.6846
vn 0.2597 -0.7345 -0.6269
vn -0.2597 -0.7345 -0.6269
vn 0.6269 -0.7345 -0.2597
vn -0.6846 -0.6846 0.2506
vn 0.6269 -0.7345 0.2597
vn -0.6846 -0.6846 -0.2506
vn 0.2597 -0.7345 0.6269
vn -0.2597 -0.7345 0.6269
vn 0.6846 -0.6846 -0.2506
vn -0.6269 -0.7345 0.2597
vn 0.6846 -0.6846 0.2506
vn -0.6269 -0.7345 -0.2597
vn -0.2597 0.7345 -0.6269
vn 0.2597 0.7345 -0.6269
vn -0.6269 0.7345 -0.2597
vn 0.6846 0.6846 0.2506
vn -0.6269 0.7345 0.2597
vn 0.6846 0.6846 -0.2506
vn -0.2597 0.7345 0.6269
vn 0.2597 0.7345 0.6269
vn 0.6269 0.7345 0.2597
vn -0.6846 0.6846 -0.2506
vn 0.6269 0.7345 -0.2597
vn -0.6846 0.6846 0.2506
vn 0.7345 0.2597 -0.6269
vn 0.7345 -0.2597 -0.6269
vn 0.7345 0.6269 -0.2597
vn 0.7345 0.6269 0.2597
vn 0.7345 0.2597 0.6269
vn 0.7345 -0.2597 0.6269
vn 0.7345 -0.6269 0.2597
vn 0.7345 -0.6269 -0.2597
vn -0.7345 -0.2597 -0.6269
vn -0.7345 0.2597 -0.6269
vn -0.7345 -0.6269 -0.2597
vn -0.7345 -0.6269 0.2597
vn -0.7345 -0.2597 0.6269
vn -0.7345 0.2597 0.6269
vn -0.7345 0.6269 0.2597
vn -0.7345 0.6269 -0.2597
vn 0.3338 -0.3338 0.8815
vn 0.8815 -0.3338 0.3338
vn 0.3338 -0.8815 0.3338
vn 0.8815 0.3338 0.3338
vn 0.3338 0.3338 0.8815
vn 0.3338 0.8815 0.3338
vn -0.8815 -0.3338 0.3338
vn -0.3338 -0.3338 0.8815
vn -0.3338 -0.8815 0.3338
vn -0.3338 0.3338 0.8815
vn -0.8815 0.3338 0.3338
vn -0.3338 0.8815 0.3338
vn 0.8815 -0.3338 -0.3338
vn 0.3338 -0.3338 -0.8815
vn 0.3338 -0.8815 -0.3338
vn 0.3338 0.3338 -0.8815
vn 0.8815 0.3338 -0.3338
vn 0.3338 0.8815 -0.3338
vn -0.3338 -0.3338 -0.8815
vn -0.8815 -0.3338 -0.3338
vn -0.3338 -0.8815 -0.3338
vn -0.8815 0.3338 -0.3338
vn -0.3338 0.3338 -0.8815
vn -0.3338 0.8815 -0.3338
f 59//1 53//2 45//3 39//4
f 91//5 69//6 53//2 59//1
f 85//7 67//8 69//6 91//5
f 57//9 51//10 67//8 85//7
f 37//11 43//12 51//10 57//9
f 5//13 27//14 43//12 37//11
f 11//16 29//15 27//14 5//13
f 39//4 45//3 29//15 11//16
f 40//17 46//18 54//19 60//20
f 12//22 30//21 46//18 40//17
f 6//24 28//23 30//21 12//22
f 38//26 44//25 28//23 6//24
f 58//28 52//27 44//25 38//26
f 86//30 68//29 52//27 58//28
f 92//32 70//31 68//29 86//30
f 60//20 54//19 70//31 92//32
f 38//26 42//33 50//34 58//28
f 2//36 26//35 42//33 38//26
f 1//38 25//37 26//35 2//36
f 37//11 41//39 25//37 1//38
f 57//9 49//40 41//39 37//11
f 81//41 65//42 49//40 57//9
f 82//43 66//44 65//42 81//41
f 58//28 50//34 66//44 82//43
f 60//20 56//45 48//46 40//17
f 96//48 72//47 56//45 60//20
f 95//50 71//49 72//47 96//48
f 59//1 55//51 71//49 95//50
f 39//4 47//52 55//51 59//1
f 15//54 31//53 47//52 39//4
f 16//56 32//55 31//53 15//54
f 40//17 48//46 32//55 16//56
f 86//30 88//57 90//58 92//32
f 82//43 84//59 88//57 86//30
f 81//41 83//60 84//59 82//43
f 85//7 87//61 83//60 81//41
f 91//5 89//62 87//61 85//7
f 95//50 93//63 89//62 91//5
f 96//48 94//64 93//63 95//50
f 92//32 90//58 94//64 96//48
f 12//22 10//65 8//66 6//24
f 16//56 14//67 10//65 12//22
f 15//54 13//68 14//67 16//56
f 11//16 9//69 13//68 15//54
f 5//13 7//70 9//69 11//16
f 1//38 3//71 7//70 5//13
f 2//36 4//72 3//71 1//38
f 6//24 8//66 4//72 2//36
f 82//43 74//73 62//74 58//28
f 86//30 76//75 74//73 82//43
f 58//28 62//74 76//75 86//30
f 60//20 64//76 80//77 96//48
f 92//32 78//78 64//76 60//20
f 96//48 80//77 78//78 92//32
f 38//26 34//79 18//80 2//36
f 6//24 20//81 34//79 38//26
f 2//36 18//80 20//81 6//24
f 16//56 24//82 36//83 40//17
f 12//22 22//84 24//82 16//56
f 40//17 36//83 22//84 12//22
f 57//9 61//85 73//86 81//41
f 85//7 75//87 61//85 57//9
f 81//41 73//86 75//87 85//7
f 95//50 79//88 63//89 59//1
f 91//5 77//90 79//88 95//50
f 59//1 63//89 77//90 91//5
f 1//38 17//91 33//92 37//11
f 5//13 19//93 17//91 1//38
f 37//11 33//92 19//93 5//13
f 39//4 35//94 23//95 15//54
f 11//16 21//96 35//94 39//4
f 15//54 23//95 21//96 11//16
