# Rhino

v -1 -1 -0.4142
v -1 -1 0.4142
v -1 -0.8757 -0.3627
v -1 -0.8757 0.3627
v -1 -0.4142 -1
v -1 -0.4142 1
v -1 -0.3627 -0.8757
v -1 -0.3627 0.8757
v -1 0.3627 -0.8757
v -1 0.3627 0.8757
v -1 0.4142 -1
v -1 0.4142 1
v -1 0.8757 -0.3627
v -1 0.8757 0.3627
v -1 1 -0.4142
v -1 1 0.4142
v -0.9448 -0.9448 -0.429
v -0.9448 -0.9448 0.429
v -0.9448 -0.8757 -0.3627
v -0.9448 -0.8757 0.3627
v -0.9448 -0.429 -0.9448
v -0.9448 -0.429 0.9448
v -0.9448 -0.3627 -0.8757
v -0.9448 -0.3627 0.8757
v -0.9448 0.3627 -0.8757
v -0.9448 0.3627 0.8757
v -0.9448 0.429 -0.9448
v -0.9448 0.429 0.9448
v -0.9448 0.8757 -0.3627
v -0.9448 0.8757 0.3627
v -0.9448 0.9448 -0.429
v -0.9448 0.9448 0.429
v -0.8985 -0.8985 -0.6171
v -0.8985 -0.8985 0.6171
v -0.8985 -0.6171 -0.8985
v -0.8985 -0.6171 0.8985
v -0.8985 0.6171 -0.8985
v -0.8985 0.6171 0.8985
v -0.8985 0.8985 -0.6171
v -0.8985 0.8985 0.6171
v -0.8757 -1 -0.3627
v -0.8757 -1 0.3627
v -0.8757 -0.9448 -0.3627
v -0.8757 -0.9448 0.3627
v -0.8757 -0.3627 -1
v -0.8757 -0.3627 -0.9448
v -0.8757 -0.3627 0.9448
v -0.8757 -0.3627 1
v -0.8757 0.3627 -1
v -0.8757 0.3627 -0.9448
v -0.8757 0.3627 0.9448
v -0.8757 0.3627 1
v -0.8757 0.9448 -0.3627
v -0.8757 0.9448 0.3627
v -0.8757 1 -0.3627
v -0.8757 1 0.3627
v -0.8667 -0.8667 -0.5853
v -0.8667 -0.8667 0.5853
v -0.8667 -0.5853 -0.8667
v -0.8667 -0.5853 0.8667
v -0.8667 0.5853 -0.8667
v -0.8667 0.5853 0.8667
v -0.8667 0.8667 -0.5853
v -0.8667 0.8667 0.5853
v -0.6171 -0.8985 -0.8985
v -0.6171 -0.8985 0.8985
v -0.6171 0.8985 -0.8985
v -0.6171 0.8985 0.8985
v -0.5853 -0.8667 -0.8667
v -0.5853 -0.8667 0.8667
v -0.5853 0.8667 -0.8667
v -0.5853 0.8667 0.8667
v -0.429 -0.9448 -0.9448
v -0.429 -0.9448 0.9448
v -0.429 0.9448 -0.9448
v -0.429 0.9448 0.9448
v -0.4142 -1 -1
v -0.4142 -1 1
v -0.4142 1 -1
v -0.4142 1 1
v -0.3627 -1 -0.8757
v -0.3627 -1 0.8757
v -0.3627 -0.9448 -0.8757
v -0.3627 -0.9448 0.8757
v -0.3627 -0.8757 -1
v -0.3627 -0.8757 -0.9448
v -0.3627 -0.8757 0.9448
v -0.3627 -0.8757 1
v -0.3627 0.8757 -1
v -0.3627 0.8757 -0.9448
v -0.3627 0.8757 0.9448
v -0.3627 0.8757 1
v -0.3627 0.9448 -0.8757
v -0.3627 0.9448 0.8757
v -0.3627 1 -0.8757
v -0.3627 1 0.8757
v 0.3627 -1 -0.8757
v 0.3627 -1 0.8757
v 0.3627 -0.9448 -0.8757
v 0.3627 -0.9448 0.8757
v 0.3627 -0.8757 -1
v 0.3627 -0.8757 -0.9448
v 0.3627 -0.8757 0.9448
v 0.3627 -0.8757 1
v 0.3627 0.8757 -1
v 0.3627 0.8757 -0.9448
v 0.3627 0.8757 0.9448
v 0.3627 0.8757 1
v 0.3627 0.9448 -0.8757
v 0.3627 0.9448 0.8757
v 0.3627 1 -0.8757
v 0.3627 1 0.8757
v 0.4142 -1 -1
v 0.4142 -1 1
v 0.4142 1 -1
v 0.4142 1 1
v 0.429 -0.9448 -0.9448
v 0.429 -0.9448 0.9448
v 0.429 0.9448 -0.9448
v 0.429 0.9448 0.9448
v 0.5853 -0.8667 -0.8667
v 0.5853 -0.8667 0.8667
v 0.5853 0.8667 -0.8667
v 0.5853 0.8667 0.8667
v 0.6171 -0.8985 -0.8985
v 0.6171 -0.8985 0.8985
v 0.6171 0.8985 -0.8985
v 0.6171 0.8985 0.8985
v 0.8667 -0.8667 -0.5853
v 0.8667 -0.8667 0.5853
v 0.8667 -0.5853 -0.8667
v 0.8667 -0.5853 0.8667
v 0.8667 0.5853 -0.8667
v 0.8667 0.5853 0.8667
v 0.8667 0.8667 -0.5853
v 0.8667 0.8667 0.5853
v 0.8757 -1 -0.3627
v 0.8757 -1 0.3627
v 0.8757 -0.9448 -0.3627
v 0.8757 -0.9448 0.3627
v 0.8757 -0.3627 -1
v 0.8757 -0.3627 -0.9448
v 0.8757 -0.3627 0.9448
v 0.8757 -0.3627 1
v 0.8757 0.3627 -1
v 0.8757 0.3627 -0.9448
v 0.8757 0.3627 0.9448
v 0.8757 0.3627 1
v 0.8757 0.9448 -0.3627
v 0.8757 0.9448 0.3627
v 0.8757 1 -0.3627
v 0.8757 1 0.3627
v 0.8985 -0.8985 -0.6171
v 0.8985 -0.8985 0.6171
v 0.8985 -0.6171 -0.8985
v 0.8985 -0.6171 0.8985
v 0.8985 0.6171 -0.8985
v 0.8985 0.6171 0.8985
v 0.8985 0.8985 -0.6171
v 0.8985 0.8985 0.6171
v 0.9448 -0.9448 -0.429
v 0.9448 -0.9448 0.429
v 0.9448 -0.8757 -0.3627
v 0.9448 -0.8757 0.3627
v 0.9448 -0.429 -0.9448
v 0.9448 -0.429 0.9448
v 0.9448 -0.3627 -0.8757
v 0.9448 -0.3627 0.8757
v 0.9448 0.3627 -0.8757
v 0.9448 0.3627 0.8757
v 0.9448 0.429 -0.9448
v 0.9448 0.429 0.9448
v 0.9448 0.8757 -0.3627
v 0.9448 0.8757 0.3627
v 0.9448 0.9448 -0.429
v 0.9448 0.9448 0.429
v 1 -1 -0.4142
v 1 -1 0.4142
v 1 -0.8757 -0.3627
v 1 -0.8757 0.3627
v 1 -0.4142 -1
v 1 -0.4142 1
v 1 -0.3627 -0.8757
v 1 -0.3627 0.8757
v 1 0.3627 -0.8757
v 1 0.3627 0.8757
v 1 0.4142 -1
v 1 0.4142 1
v 1 0.8757 -0.3627
v 1 0.8757 0.3627
v 1 1 -0.4142
v 1 1 0.4142
vn 0.2506 -0.6846 -0.6846
vn 0.2506 -0.6846 0.6846
vn 0.2506 0.6846 -0.6846
vn 0.2506 0.6846 0.6846
vn -0.2506 -0.6846 -0.6846
vn -0.2506 -0.6846 0.6846
vn -0.2506 0.6846 -0.6846
vn -0.2506 0.6846 0.6846
vn -0.6846 0.2506 -0.6846
vn -0.6846 0.2506 0.6846
vn -0.6846 -0.2506 -0.6846
vn -0.6846 -0.2506 0.6846
vn -0.6846 -0.6846 0.2506
vn -0.6846 -0.6846 -0.2506
vn -0.6846 0.6846 0.2506
vn -0.6846 0.6846 -0.2506
vn 0.6846 0.2506 -0.6846
vn 0.6846 0.2506 0.6846
vn 0.6846 -0.2506 -0.6846
vn 0.6846 -0.2506 0.6846
vn 0.6846 -0.6846 0.2506
vn 0.6846 -0.6846 -0.2506
vn 0.6846 0.6846 0.2506
vn 0.6846 0.6846 -0.2506
vn -0.2506 0.6846 0.6846
vn -0.2506 0.6846 -0.6846
vn -0.2506 -0.6846 0.6846
vn -0.2506 -0.6846 -0.6846
vn 0.2506 0.6846 0.6846
vn 0.2506 0.6846 -0.6846
vn 0.2506 -0.6846 0.6846
vn 0.2506 -0.6846 -0.6846
vn 0.6846 -0.2506 0.6846
vn 0.6846 -0.2506 -0.6846
vn 0.6846 0.2506 0.6846
vn 0.6846 0.2506 -0.6846
vn 0.6846 0.6846 -0.2506
vn 0.6846 0.6846 0.2506
vn 0.6846 -0.6846 -0.2506
vn 0.6846 -0.6846 0.2506
vn -0.6846 -0.2506 0.6846
vn -0.6846 -0.2506 -0.6846
vn -0.6846 0.2506 0.6846
vn -0.6846 0.2506 -0.6846
vn -0.6846 0.6846 -0.2506
vn -0.6846 0.6846 0.2506
vn -0.6846 -0.6846 -0.2506
vn -0.6846 -0.6846 0.2506
vn 0.2597 0.6269 0.7345
vn 0.2597 0.6269 -0.7345
vn 0.6269 0.2597 0.7345
vn 0.6269 0.2597 -0.7345
vn 0.6269 -0.2597 0.7345
vn 0.6269 -0.2597 -0.7345
vn 0.2597 -0.6269 0.7345
vn 0.2597 -0.6269 -0.7345
vn -0.2597 -0.6269 0.7345
vn -0.2597 -0.6269 -0.7345
vn -0.6269 -0.2597 0.7345
vn -0.6269 -0.2597 -0.7345
vn -0.6269 0.2597 0.7345
vn -0.6269 0.2597 -0.7345
vn -0.2597 0.6269 0.7345
vn -0.2597 0.6269 -0.7345
vn -0.2597 0.6269 -0.7345
vn -0.2597 0.6269 0.7345
vn -0.6269 0.2597 -0.7345
vn -0.6269 0.2597 0.7345
vn -0.6269 -0.2597 -0.7345
vn -0.6269 -0.2597 0.7345
vn -0.2597 -0.6269 -0.7345
vn -0.2597 -0.6269 0.7345
vn 0.2597 -0.6269 -0.7345
vn 0.2597 -0.6269 0.7345
vn 0.6269 -0.2597 -0.7345
vn 0.6269 -0.2597 0.7345
vn 0.6269 0.2597 -0.7345
vn 0.6269 0.2597 0.7345
vn 0.2597 0.6269 -0.7345
vn 0.2597 0.6269 0.7345
vn -0.2597 0.7345 0.6269
vn -0.2597 -0.7345 0.6269
vn -0.6269 0.7345 0.2597
vn -0.6269 -0.7345 0.2597
vn -0.6269 0.7345 -0.2597
vn -0.6269 -0.7345 -0.2597
vn -0.2597 0.7345 -0.6269
vn -0.2597 -0.7345 -0.6269
vn 0.2597 0.7345 -0.6269
vn 0.2597 -0.7345 -0.6269
vn 0.6269 0.7345 -0.2597
vn 0.6269 -0.7345 -0.2597
vn 0.6269 0.7345 0.2597
vn 0.6269 -0.7345 0.2597
vn 0.2597 0.7345 0.6269
vn 0.2597 -0.7345 0.6269
vn 0.2597 -0.7345 0.6269
vn 0.2597 0.7345 0.6269
vn 0.6269 -0.7345 0.2597
vn 0.6269 0.7345 0.2597
vn 0.6269 -0.7345 -0.2597
vn 0.6269 0.7345 -0.2597
vn 0.2597 -0.7345 -0.6269
vn 0.2597 0.7345 -0.6269
vn -0.2597 -0.7345 -0.6269
vn -0.2597 0.7345 -0.6269
vn -0.6269 -0.7345 -0.2597
vn -0.6269 0.7345 -0.2597
vn -0.6269 -0.7345 0.2597
vn -0.6269 0.7345 0.2597
vn -0.2597 -0.7345 0.6269
vn -0.2597 0.7345 0.6269
vn -0.7345 -0.2597 0.6269
vn 0.7345 -0.2597 0.6269
vn -0.7345 -0.6269 0.2597
vn 0.7345 -0.6269 0.2597
vn -0.7345 -0.6269 -0.2597
vn 0.7345 -0.6269 -0.2597
vn -0.7345 -0.2597 -0.6269
vn 0.7345 -0.2597 -0.6269
vn -0.7345 0.2597 -0.6269
vn 0.7345 0.2597 -0.6269
vn -0.7345 0.6269 -0.2597
vn 0.7345 0.6269 -0.2597
vn -0.7345 0.6269 0.2597
vn 0.7345 0.6269 0.2597
vn -0.7345 0.2597 0.6269
vn 0.7345 0.2597 0.6269
vn 0.7345 0.2597 0.6269
vn -0.7345 0.2597 0.6269
vn 0.7345 0.6269 0.2597
vn -0.7345 0.6269 0.2597
vn 0.7345 0.6269 -0.2597
vn -0.7345 0.6269 -0.2597
vn 0.7345 0.2597 -0.6269
vn -0.7345 0.2597 -0.6269
vn 0.7345 -0.2597 -0.6269
vn -0.7345 -0.2597 -0.6269
vn 0.7345 -0.6269 -0.2597
vn -0.7345 -0.6269 -0.2597
vn 0.7345 -0.6269 0.2597
vn -0.7345 -0.6269 0.2597
vn 0.7345 -0.2597 0.6269
vn -0.7345 -0.2597 0.6269
vn -0.3338 0.3338 -0.8815
vn 0.699 -0.699 0.1512
vn -0.3338 0.8815 -0.3338
vn 0.699 -0.1512 0.699
vn -0.8815 0.3338 -0.3338
vn 0.1512 -0.699 0.699
vn -0.8815 -0.3338 -0.3338
vn 0.1512 0.699 0.699
vn -0.3338 -0.8815 -0.3338
vn 0.699 0.1512 0.699
vn -0.3338 -0.3338 -0.8815
vn 0.699 0.699 0.1512
vn 0.8815 0.3338 -0.3338
vn -0.1512 -0.699 0.699
vn 0.3338 0.8815 -0.3338
vn -0.699 -0.1512 0.699
vn 0.3338 0.3338 -0.8815
vn -0.699 -0.699 0.1512
vn 0.3338 -0.3338 -0.8815
vn -0.699 0.699 0.1512
vn 0.3338 -0.8815 -0.3338
vn -0.699 0.1512 0.699
vn 0.8815 -0.3338 -0.3338
vn -0.1512 0.699 0.699
vn -0.8815 0.3338 0.3338
vn 0.1512 -0.699 -0.699
vn -0.3338 0.8815 0.3338
vn 0.699 -0.1512 -0.699
vn -0.3338 0.3338 0.8815
vn 0.699 -0.699 -0.1512
vn -0.3338 -0.3338 0.8815
vn 0.699 0.699 -0.1512
vn -0.3338 -0.8815 0.3338
vn 0.699 0.1512 -0.699
vn -0.8815 -0.3338 0.3338
vn 0.1512 0.699 -0.699
vn 0.3338 0.3338 0.8815
vn -0.699 -0.699 -0.1512
vn 0.3338 0.8815 0.3338
vn -0.699 -0.1512 -0.699
vn 0.8815 0.3338 0.3338
vn -0.1512 -0.699 -0.699
vn 0.8815 -0.3338 0.3338
vn -0.1512 0.699 -0.699
vn 0.3338 -0.8815 0.3338
vn -0.699 0.1512 -0.699
vn 0.3338 -0.3338 0.8815
vn -0.699 0.699 -0.1512
f 106//50 146//52 145//51 105//49
f 119//30 171//36 146//52 106//50
f 146//52 142//54 141//53 145//51
f 171//36 165//34 142//54 146//52
f 142//54 102//56 101//55 141//53
f 165//34 117//32 102//56 142//54
f 102//56 86//58 85//57 101//55
f 117//32 73//28 86//58 102//56
f 86//58 46//60 45//59 85//57
f 73//28 21//42 46//60 86//58
f 46//60 50//62 49//61 45//59
f 21//42 27//44 50//62 46//60
f 50//62 90//64 89//63 49//61
f 27//44 75//26 90//64 50//62
f 90//64 106//50 105//49 89//63
f 75//26 119//30 106//50 90//64
f 91//66 51//68 52//67 92//65
f 76//25 28//43 51//68 91//66
f 51//68 47//70 48//69 52//67
f 28//43 22//41 47//70 51//68
f 47//70 87//72 88//71 48//69
f 22//41 74//27 87//72 47//70
f 87//72 103//74 104//73 88//71
f 74//27 118//31 103//74 87//72
f 103//74 143//76 144//75 104//73
f 118//31 166//33 143//76 103//74
f 143//76 147//78 148//77 144//75
f 166//33 172//35 147//78 143//76
f 147//78 107//80 108//79 148//77
f 172//35 120//29 107//80 147//78
f 107//80 91//66 92//65 108//79
f 120//29 76//25 91//66 107//80
f 84//82 44//84 42//83 82//81
f 74//27 18//48 44//84 84//82
f 44//84 43//86 41//85 42//83
f 18//48 17//47 43//86 44//84
f 43//86 83//88 81//87 41//85
f 17//47 73//28 83//88 43//86
f 83//88 99//90 97//89 81//87
f 73//28 117//32 99//90 83//88
f 99//90 139//92 137//91 97//89
f 117//32 161//39 139//92 99//90
f 139//92 140//94 138//93 137//91
f 161//39 162//40 140//94 139//92
f 140//94 100//96 98//95 138//93
f 162//40 118//31 100//96 140//94
f 100//96 84//82 82//81 98//95
f 118//31 74//27 84//82 100//96
f 110//98 150//100 152//99 112//97
f 120//29 176//38 150//100 110//98
f 150//100 149//102 151//101 152//99
f 176//38 175//37 149//102 150//100
f 149//102 109//104 111//103 151//101
f 175//37 119//30 109//104 149//102
f 109//104 93//106 95//105 111//103
f 119//30 75//26 93//106 109//104
f 93//106 53//108 55//107 95//105
f 75//26 31//45 53//108 93//106
f 53//108 54//110 56//109 55//107
f 31//45 32//46 54//110 53//108
f 54//110 94//112 96//111 56//109
f 32//46 76//25 94//112 54//110
f 94//112 110//98 112//97 96//111
f 76//25 120//29 110//98 94//112
f 168//114 164//116 180//115 184//113
f 166//33 162//40 164//116 168//114
f 164//116 163//118 179//117 180//115
f 162//40 161//39 163//118 164//116
f 163//118 167//120 183//119 179//117
f 161//39 165//34 167//120 163//118
f 167//120 169//122 185//121 183//119
f 165//34 171//36 169//122 167//120
f 169//122 173//124 189//123 185//121
f 171//36 175//37 173//124 169//122
f 173//124 174//126 190//125 189//123
f 175//37 176//38 174//126 173//124
f 174//126 170//128 186//127 190//125
f 176//38 172//35 170//128 174//126
f 170//128 168//114 184//113 186//127
f 172//35 166//33 168//114 170//128
f 26//130 30//132 14//131 10//129
f 28//43 32//46 30//132 26//130
f 30//132 29//134 13//133 14//131
f 32//46 31//45 29//134 30//132
f 29//134 25//136 9//135 13//133
f 31//45 27//44 25//136 29//134
f 25//136 23//138 7//137 9//135
f 27//44 21//42 23//138 25//136
f 23//138 19//140 3//139 7//137
f 21//42 17//47 19//140 23//138
f 19//140 20//142 4//141 3//139
f 17//47 18//48 20//142 19//140
f 20//142 24//144 8//143 4//141
f 18//48 22//41 24//144 20//142
f 24//144 26//130 10//129 8//143
f 22//41 28//43 26//130 24//144
f 178//16 114//7 126//149 154//145
f 130//146 132//148 156//147 154//145
f 162//40 166//33 132//148 130//146
f 182//9 178//16 154//145 156//147
f 132//148 122//150 126//149 156//147
f 166//33 118//31 122//150 132//148
f 114//7 182//9 156//147 126//149
f 122//150 130//146 154//145 126//149
f 118//31 162//40 130//146 122//150
f 116//5 192//14 160//155 128//151
f 124//152 134//154 158//153 128//151
f 120//29 172//35 134//154 124//152
f 188//11 116//5 128//151 158//153
f 134//154 136//156 160//155 158//153
f 172//35 176//38 136//156 134//154
f 192//14 188//11 158//153 160//155
f 136//156 124//152 128//151 160//155
f 176//38 120//29 124//152 136//156
f 78//3 2//24 34//161 66//157
f 70//158 60//160 36//159 66//157
f 74//27 22//41 60//160 70//158
f 6//17 78//3 66//157 36//159
f 60//160 58//162 34//161 36//159
f 22//41 18//48 58//162 60//160
f 2//24 6//17 36//159 34//161
f 58//162 70//158 66//157 34//161
f 18//48 74//27 70//158 58//162
f 16//22 80//1 68//167 40//163
f 64//164 62//166 38//165 40//163
f 32//46 28//43 62//166 64//164
f 12//19 16//22 40//163 38//165
f 62//166 72//168 68//167 38//165
f 28//43 76//25 72//168 62//166
f 80//1 12//19 38//165 68//167
f 72//168 64//164 40//163 68//167
f 76//25 32//46 64//164 72//168
f 113//8 177//15 153//173 125//169
f 121//170 131//172 155//171 125//169
f 117//32 165//34 131//172 121//170
f 181//10 113//8 125//169 155//171
f 131//172 129//174 153//173 155//171
f 165//34 161//39 129//174 131//172
f 177//15 181//10 155//171 153//173
f 129//174 121//170 125//169 153//173
f 161//39 117//32 121//170 129//174
f 191//13 115//6 127//179 159//175
f 135//176 133//178 157//177 159//175
f 175//37 171//36 133//178 135//176
f 187//12 191//13 159//175 157//177
f 133//178 123//180 127//179 157//177
f 171//36 119//30 123//180 133//178
f 115//6 187//12 157//177 127//179
f 123//180 135//176 159//175 127//179
f 119//30 175//37 135//176 123//180
f 1//23 77//4 65//185 33//181
f 57//182 59//184 35//183 33//181
f 17//47 21//42 59//184 57//182
f 5//18 1//23 33//181 35//183
f 59//184 69//186 65//185 35//183
f 21//42 73//28 69//186 59//184
f 77//4 5//18 35//183 65//185
f 69//186 57//182 33//181 65//185
f 73//28 17//47 57//182 69//186
f 79//2 15//21 39//191 67//187
f 71//188 61//190 37//189 67//187
f 75//26 27//44 61//190 71//188
f 11//20 79//2 67//187 37//189
f 61//190 63//192 39//191 37//189
f 27//44 31//45 63//192 61//190
f 15//21 11//20 37//189 39//191
f 63//192 71//188 67//187 39//191
f 31//45 75//26 71//188 63//192
