# Rhino

v 0.2384 -1 -1
v 0.4142 -1 -1
v 0.429 -0.9448 -0.9448
v 0.5853 -0.8667 -0.8667
v 0.6171 -0.8985 -0.8985
v 0.8667 -0.8667 -0.5853
v 0.8667 -0.5853 -0.8667
v 0.8985 -0.8985 -0.6171
v 0.8985 -0.6171 -0.8985
v 0.9448 -0.9448 -0.429
v 0.9448 -0.429 -0.9448
v 1 -1 -0.2384
v 1 -1 -0.4142
v 1 -0.4142 -1
v 1 -0.2384 -1
vn 0.65435 -0.65435 -0.37901
vn 0.65435 -0.37901 -0.65435
vn 0.72616 -0.34399 -0.59528
vn 0.31552 -0.67099 -0.67099
vn 0.37901 -0.65435 -0.65435
vn 0.65435 -0.65435 -0.37901
vn -0.25058 0.68455 0.68455
vn -0.88155 0.33382 0.33382
vn -0.33382 0.33382 0.88155
vn -0.68455 0.68455 0.25058
vn 0.1512 -0.69898 -0.69898
vn -0.33382 0.88155 0.33382
vn 0.69898 -0.1512 -0.69898
vn -0.68455 0.25058 0.68455
vn 0.69898 -0.69898 -0.1512
f 10//6 11//3 15//2 12//1
f 15//2 11//3 3//4 1//5
f 3//4 10//6 12//1 1//5
f 2//7 13//10 8//9 5//8
f 4//11 7//13 9//12 5//8
f 3//4 11//3 7//13 4//11
f 14//14 2//7 5//8 9//12
f 7//13 6//15 8//9 9//12
f 11//3 10//6 6//15 7//13
f 13//10 14//14 9//12 8//9
f 6//15 4//11 5//8 8//9
f 10//6 3//4 4//11 6//15
v 0.2384 1 -1
v 0.4142 1 -1
v 0.429 0.9448 -0.9448
v 0.5853 0.8667 -0.8667
v 0.6171 0.8985 -0.8985
v 0.8667 0.5853 -0.8667
v 0.8667 0.8667 -0.5853
v 0.8985 0.6171 -0.8985
v 0.8985 0.8985 -0.6171
v 0.9448 0.429 -0.9448
v 0.9448 0.9448 -0.429
v 1 1 -0.2384
v 1 0.2384 -1
v 1 0.4142 -1
v 1 1 -0.4142
vn 0.65435 0.37901 -0.65435
vn 0.31552 0.67099 -0.67099
vn 0.72616 0.59528 -0.34399
vn 0.65435 0.65435 -0.37901
vn 0.37901 0.65435 -0.65435
vn -0.25058 -0.68455 0.68455
vn -0.88155 -0.33382 0.33382
vn -0.33382 -0.33382 0.88155
vn -0.68455 -0.68455 0.25058
vn 0.1512 0.69898 -0.69898
vn -0.33382 -0.88155 0.33382
vn 0.69898 0.1512 -0.69898
vn 0.72616 0.34399 -0.59528
vn -0.68455 -0.25058 0.68455
vn 0.69898 0.69898 -0.1512
f 26//18 27//19 28//16 25//28
f 28//16 16//20 18//17 25//28
f 18//17 16//20 27//19 26//18
f 17//21 20//22 24//23 30//24
f 19//25 20//22 23//26 21//27
f 18//17 19//25 21//27 25//28
f 29//29 23//26 20//22 17//21
f 21//27 23//26 24//23 22//30
f 25//28 21//27 22//30 26//18
f 30//24 24//23 23//26 29//29
f 22//30 24//23 20//22 19//25
f 26//18 22//30 19//25 18//17
v -1 0.2384 -1
v -1 0.4142 -1
v -1 1 -0.4142
v -1 1 -0.2384
v -0.9448 0.429 -0.9448
v -0.9448 0.9448 -0.429
v -0.8985 0.6171 -0.8985
v -0.8985 0.8985 -0.6171
v -0.8667 0.5853 -0.8667
v -0.8667 0.8667 -0.5853
v -0.6171 0.8985 -0.8985
v -0.5853 0.8667 -0.8667
v -0.429 0.9448 -0.9448
v -0.4142 1 -1
v -0.2384 1 -1
vn -0.67099 0.31552 -0.67099
vn -0.65435 0.37901 -0.65435
vn -0.34399 0.59528 -0.72616
vn -0.67099 0.67099 -0.31552
vn -0.65435 0.65435 -0.37901
vn -0.37901 0.65435 -0.65435
vn 0.25058 -0.68455 0.68455
vn 0.88155 -0.33382 0.33382
vn 0.33382 -0.33382 0.88155
vn 0.68455 -0.68455 0.25058
vn -0.1512 0.69898 -0.69898
vn 0.33382 -0.88155 0.33382
vn -0.69898 0.1512 -0.69898
vn 0.68455 -0.25058 0.68455
vn -0.69898 0.69898 -0.1512
f 36//34 35//31 31//32 34//35
f 31//32 35//31 43//33 45//36
f 43//33 36//34 34//35 45//36
f 44//37 33//40 38//39 41//38
f 42//41 39//43 37//42 41//38
f 43//33 35//31 39//43 42//41
f 32//44 44//37 41//38 37//42
f 39//43 40//45 38//39 37//42
f 35//31 36//34 40//45 39//43
f 33//40 32//44 37//42 38//39
f 40//45 42//41 41//38 38//39
f 36//34 43//33 42//41 40//45
v -1 -1 -0.4142
v -1 -0.4142 -1
v -1 -0.2384 -1
v -1 -1 -0.2384
v -0.9448 -0.9448 -0.429
v -0.9448 -0.429 -0.9448
v -0.8985 -0.8985 -0.6171
v -0.8985 -0.6171 -0.8985
v -0.8667 -0.8667 -0.5853
v -0.8667 -0.5853 -0.8667
v -0.6171 -0.8985 -0.8985
v -0.5853 -0.8667 -0.8667
v -0.429 -0.9448 -0.9448
v -0.4142 -1 -1
v -0.2384 -1 -1
vn -0.67099 -0.67099 -0.31552
vn -0.65435 -0.65435 -0.37901
vn -0.65435 -0.37901 -0.65435
vn -0.67099 -0.31552 -0.67099
vn -0.37901 -0.65435 -0.65435
vn -0.34399 -0.72616 -0.59528
vn 0.25058 0.68455 0.68455
vn 0.88155 0.33382 0.33382
vn 0.33382 0.33382 0.88155
vn 0.68455 0.68455 0.25058
vn -0.1512 -0.69898 -0.69898
vn 0.33382 0.88155 0.33382
vn -0.69898 -0.1512 -0.69898
vn 0.68455 0.25058 0.68455
vn -0.69898 -0.69898 -0.1512
f 50//46 49//47 48//48 51//49
f 48//48 60//50 58//51 51//49
f 58//51 60//50 49//47 50//46
f 59//52 56//53 52//54 46//55
f 57//56 56//53 53//57 55//58
f 58//51 57//56 55//58 51//49
f 47//59 53//57 56//53 59//52
f 55//58 53//57 52//54 54//60
f 51//49 55//58 54//60 50//46
f 46//55 52//54 53//57 47//59
f 54//60 52//54 56//53 57//56
f 50//46 54//60 57//56 58//51
v -1 -1 0.4142
v -1 -0.4142 1
v -1 -0.2384 1
v -1 -1 0.2384
v -0.9448 -0.9448 0.429
v -0.9448 -0.429 0.9448
v -0.8985 -0.8985 0.6171
v -0.8985 -0.6171 0.8985
v -0.8667 -0.8667 0.5853
v -0.8667 -0.5853 0.8667
v -0.6171 -0.8985 0.8985
v -0.5853 -0.8667 0.8667
v -0.429 -0.9448 0.9448
v -0.4142 -1 1
v -0.2384 -1 1
vn -0.67099 -0.31552 0.67099
vn -0.65435 -0.37901 0.65435
vn -0.34399 -0.59528 0.72616
vn -0.67099 -0.67099 0.31552
vn -0.65435 -0.65435 0.37901
vn -0.37901 -0.65435 0.65435
vn 0.25058 0.68455 -0.68455
vn 0.88155 0.33382 -0.33382
vn 0.33382 0.33382 -0.88155
vn 0.68455 0.68455 -0.25058
vn -0.1512 -0.69898 0.69898
vn 0.33382 0.88155 -0.33382
vn -0.69898 -0.1512 0.69898
vn 0.68455 0.25058 -0.68455
vn -0.69898 -0.69898 0.1512
f 65//64 66//61 63//62 64//65
f 63//62 66//61 73//63 75//66
f 73//63 65//64 64//65 75//66
f 74//67 61//70 67//69 71//68
f 72//71 70//73 68//72 71//68
f 73//63 66//61 70//73 72//71
f 62//74 74//67 71//68 68//72
f 70//73 69//75 67//69 68//72
f 66//61 65//64 69//75 70//73
f 61//70 62//74 68//72 67//69
f 69//75 72//71 71//68 67//69
f 65//64 73//63 72//71 69//75
v -1 0.2384 1
v -1 0.4142 1
v -1 1 0.4142
v -1 1 0.2384
v -0.9448 0.429 0.9448
v -0.9448 0.9448 0.429
v -0.8985 0.6171 0.8985
v -0.8985 0.8985 0.6171
v -0.8667 0.5853 0.8667
v -0.8667 0.8667 0.5853
v -0.6171 0.8985 0.8985
v -0.5853 0.8667 0.8667
v -0.429 0.9448 0.9448
v -0.4142 1 1
v -0.2384 1 1
vn -0.67099 0.67099 0.31552
vn -0.65435 0.65435 0.37901
vn -0.65435 0.37901 0.65435
vn -0.67099 0.31552 0.67099
vn -0.34399 0.72616 0.59528
vn -0.37901 0.65435 0.65435
vn 0.25058 -0.68455 -0.68455
vn 0.88155 -0.33382 -0.33382
vn 0.33382 -0.33382 -0.88155
vn 0.68455 -0.68455 -0.25058
vn -0.1512 0.69898 0.69898
vn 0.33382 -0.88155 -0.33382
vn -0.69898 0.1512 0.69898
vn 0.68455 -0.25058 -0.68455
vn -0.69898 0.69898 0.1512
f 81//76 79//77 76//78 80//79
f 76//78 90//81 88//80 80//79
f 88//80 90//81 79//77 81//76
f 89//82 86//83 83//84 78//85
f 87//86 86//83 82//87 84//88
f 88//80 87//86 84//88 80//79
f 77//89 82//87 86//83 89//82
f 84//88 82//87 83//84 85//90
f 80//79 84//88 85//90 81//76
f 78//85 83//84 82//87 77//89
f 85//90 83//84 86//83 87//86
f 81//76 85//90 87//86 88//80
v 0.2384 1 1
v 0.4142 1 1
v 0.429 0.9448 0.9448
v 0.5853 0.8667 0.8667
v 0.6171 0.8985 0.8985
v 0.8667 0.5853 0.8667
v 0.8667 0.8667 0.5853
v 0.8985 0.6171 0.8985
v 0.8985 0.8985 0.6171
v 0.9448 0.429 0.9448
v 0.9448 0.9448 0.429
v 1 1 0.2384
v 1 0.2384 1
v 1 0.4142 1
v 1 1 0.4142
vn 0.65435 0.65435 0.37901
vn 0.65435 0.37901 0.65435
vn 0.72616 0.34399 0.59528
vn 0.31552 0.67099 0.67099
vn 0.37901 0.65435 0.65435
vn 0.65435 0.65435 0.37901
vn -0.25058 -0.68455 -0.68455
vn -0.88155 -0.33382 -0.33382
vn -0.33382 -0.33382 -0.88155
vn -0.68455 -0.68455 -0.25058
vn 0.1512 0.69898 0.69898
vn -0.33382 -0.88155 -0.33382
vn 0.69898 0.1512 0.69898
vn -0.68455 -0.25058 -0.68455
vn 0.69898 0.69898 0.1512
f 101//96 100//93 103//92 102//91
f 103//92 100//93 93//94 91//95
f 93//94 101//96 102//91 91//95
f 92//97 105//100 99//99 95//98
f 94//101 96//103 98//102 95//98
f 93//94 100//93 96//103 94//101
f 104//104 92//97 95//98 98//102
f 96//103 97//105 99//99 98//102
f 100//93 101//96 97//105 96//103
f 105//100 104//104 98//102 99//99
f 97//105 94//101 95//98 99//99
f 101//96 93//94 94//101 97//105
v 0.2384 -1 1
v 0.4142 -1 1
v 0.429 -0.9448 0.9448
v 0.5853 -0.8667 0.8667
v 0.6171 -0.8985 0.8985
v 0.8667 -0.8667 0.5853
v 0.8667 -0.5853 0.8667
v 0.8985 -0.8985 0.6171
v 0.8985 -0.6171 0.8985
v 0.9448 -0.9448 0.429
v 0.9448 -0.429 0.9448
v 1 -1 0.2384
v 1 -1 0.4142
v 1 -0.4142 1
v 1 -0.2384 1
vn 0.65435 -0.37901 0.65435
vn 0.31552 -0.67099 0.67099
vn 0.72616 -0.59528 0.34399
vn 0.65435 -0.65435 0.37901
vn 0.37901 -0.65435 0.65435
vn -0.25058 0.68455 -0.68455
vn -0.88155 0.33382 -0.33382
vn -0.33382 0.33382 -0.88155
vn -0.68455 0.68455 -0.25058
vn 0.1512 -0.69898 0.69898
vn -0.33382 0.88155 -0.33382
vn 0.69898 -0.1512 0.69898
vn 0.72616 -0.34399 0.59528
vn -0.68455 0.25058 -0.68455
vn 0.69898 -0.69898 0.1512
f 115//108 117//109 120//106 116//118
f 120//106 106//110 108//107 116//118
f 108//107 106//110 117//109 115//108
f 107//111 110//112 113//113 118//114
f 109//115 110//112 114//116 112//117
f 108//107 109//115 112//117 116//118
f 119//119 114//116 110//112 107//111
f 112//117 114//116 113//113 111//120
f 116//118 112//117 111//120 115//108
f 118//114 113//113 114//116 119//119
f 111//120 113//113 110//112 109//115
f 115//108 111//120 109//115 108//107
