# Rhino

v -1 -0.1 -0.1
v -1 -0.1 0.1
v -1 0.1 -0.1
v -1 0.1 0.1
v -0.1 -1 -0.1
v -0.1 -1 0.1
v -0.1 -0.1 -1
v -0.1 -0.1 -0.1
v -0.1 -0.1 0.1
v -0.1 -0.1 1
v -0.1 0.1 -1
v -0.1 0.1 -0.1
v -0.1 0.1 0.1
v -0.1 0.1 1
v -0.1 1 -0.1
v -0.1 1 0.1
v 0.1 -1 -0.1
v 0.1 -1 0.1
v 0.1 -0.1 -1
v 0.1 -0.1 -0.1
v 0.1 -0.1 0.1
v 0.1 -0.1 1
v 0.1 0.1 -1
v 0.1 0.1 -0.1
v 0.1 0.1 0.1
v 0.1 0.1 1
v 0.1 1 -0.1
v 0.1 1 0.1
v 1 -0.1 -0.1
v 1 -0.1 0.1
v 1 0.1 -0.1
v 1 0.1 0.1
vn 0 -2.22e-16 -1
vn 0 -2.22e-16 -1
vn 0 -2.22e-16 -1
vn 0 -2.22e-16 -1
vn -1 0 0
vn -1 0 0
vn -1 0 0
vn -1 0 0
vn 0 2.22e-16 1
vn 0 2.22e-16 1
vn 0 2.22e-16 1
vn 0 2.22e-16 1
vn 1 0 0
vn 1 0 0
vn 1 0 0
vn 1 0 0
vn 0 -2.22e-16 -1
vn 0 -2.22e-16 -1
vn 0 -2.22e-16 -1
vn 0 -2.22e-16 -1
vn -1 0 0
vn -1 0 0
vn -1 0 0
vn -1 0 0
vn 0 2.22e-16 1
vn 0 2.22e-16 1
vn 0 2.22e-16 1
vn 0 2.22e-16 1
vn 1 0 0
vn 1 0 0
vn 1 0 0
vn 1 0 0
vn 0 1 0
vn 0 1 0
vn 0 1 0
vn 0 1 0
vn 2.22e-16 0 1
vn 2.22e-16 0 1
vn 2.22e-16 0 1
vn 2.22e-16 0 1
vn 0 -1 0
vn 0 -1 0
vn 0 -1 0
vn 0 -1 0
vn -2.22e-16 0 -1
vn -2.22e-16 0 -1
vn -2.22e-16 0 -1
vn -2.22e-16 0 -1
vn 0 1 0
vn 0 1 0
vn 0 1 0
vn 0 1 0
vn 2.22e-16 0 1
vn 2.22e-16 0 1
vn 2.22e-16 0 1
vn 2.22e-16 0 1
vn 0 -1 0
vn 0 -1 0
vn 0 -1 0
vn 0 -1 0
vn -2.22e-16 0 -1
vn -2.22e-16 0 -1
vn -2.22e-16 0 -1
vn -2.22e-16 0 -1
vn 0 1 0
vn 0 1 0
vn 0 1 0
vn 0 1 0
vn -1 0 0
vn -1 0 0
vn -1 0 0
vn -1 0 0
vn 0 -1 0
vn 0 -1 0
vn 0 -1 0
vn 0 -1 0
vn 1 0 0
vn 1 0 0
vn 1 0 0
vn 1 0 0
vn 0 1 0
vn 0 1 0
vn 0 1 0
vn 0 1 0
vn -1 0 0
vn -1 0 0
vn -1 0 0
vn -1 0 0
vn 0 -1 0
vn 0 -1 0
vn 0 -1 0
vn 0 -1 0
vn 1 0 0
vn 1 0 0
vn 1 0 0
vn 1 0 0
f 9//1 21//2 18//4 6//3
f 21//5 20//6 17//8 18//7
f 20//9 8//10 5//12 17//11
f 8//13 9//14 6//16 5//15
f 13//17 16//19 28//20 25//18
f 25//21 28//23 27//24 24//22
f 24//25 27//27 15//28 12//26
f 12//29 15//31 16//32 13//30
f 9//33 8//34 1//36 2//35
f 8//37 12//38 3//40 1//39
f 12//41 13//42 4//44 3//43
f 13//45 9//46 2//48 4//47
f 21//49 30//51 29//52 20//50
f 20//53 29//55 31//56 24//54
f 24//57 31//59 32//60 25//58
f 25//61 32//63 30//64 21//62
f 8//65 20//66 19//68 7//67
f 20//69 24//70 23//72 19//71
f 24//73 12//74 11//76 23//75
f 12//77 8//78 7//80 11//79
f 9//81 10//83 22//84 21//82
f 21//85 22//87 26//88 25//86
f 25//89 26//91 14//92 13//90
f 13//93 14//95 10//96 9//94
