# Rhino

g object_1
v -1 -1 -0.4142
v -1 -1 -0.2384
v -1 -1 0.2384
v -1 -1 0.4142
v -1 -0.4142 -1
v -1 -0.4142 1
v -1 -0.2384 -1
v -1 -0.2384 1
v -1 0.2384 -1
v -1 0.2384 1
v -1 0.4142 -1
v -1 0.4142 1
v -1 1 -0.4142
v -1 1 -0.2384
v -1 1 0.2384
v -1 1 0.4142
v -0.9448 -0.9448 -0.429
v -0.9448 -0.9448 0.429
v -0.9448 -0.429 -0.9448
v -0.9448 -0.429 0.9448
v -0.9448 0.429 -0.9448
v -0.9448 0.429 0.9448
v -0.9448 0.9448 -0.429
v -0.9448 0.9448 0.429
v -0.8985 -0.8985 -0.6171
v -0.8985 -0.8985 0.6171
v -0.8985 -0.6171 -0.8985
v -0.8985 -0.6171 0.8985
v -0.8985 0.6171 -0.8985
v -0.8985 0.6171 0.8985
v -0.8985 0.8985 -0.6171
v -0.8985 0.8985 0.6171
v -0.8667 -0.8667 -0.5853
v -0.8667 -0.8667 0.5853
v -0.8667 -0.5853 -0.8667
v -0.8667 -0.5853 0.8667
v -0.8667 0.5853 -0.8667
v -0.8667 0.5853 0.8667
v -0.8667 0.8667 -0.5853
v -0.8667 0.8667 0.5853
v -0.6171 -0.8985 -0.8985
v -0.6171 -0.8985 0.8985
v -0.6171 0.8985 -0.8985
v -0.6171 0.8985 0.8985
v -0.5853 -0.8667 -0.8667
v -0.5853 -0.8667 0.8667
v -0.5853 0.8667 -0.8667
v -0.5853 0.8667 0.8667
v -0.429 -0.9448 -0.9448
v -0.429 -0.9448 0.9448
v -0.429 0.9448 -0.9448
v -0.429 0.9448 0.9448
v -0.4142 -1 -1
v -0.4142 -1 1
v -0.4142 1 -1
v -0.4142 1 1
v -0.2384 -1 -1
v -0.2384 -1 1
v -0.2384 1 -1
v -0.2384 1 1
v 0.2384 -1 -1
v 0.2384 -1 1
v 0.2384 1 -1
v 0.2384 1 1
v 0.4142 -1 -1
v 0.4142 -1 1
v 0.4142 1 -1
v 0.4142 1 1
v 0.429 -0.9448 -0.9448
v 0.429 -0.9448 0.9448
v 0.429 0.9448 -0.9448
v 0.429 0.9448 0.9448
v 0.5853 -0.8667 -0.8667
v 0.5853 -0.8667 0.8667
v 0.5853 0.8667 -0.8667
v 0.5853 0.8667 0.8667
v 0.6171 -0.8985 -0.8985
v 0.6171 -0.8985 0.8985
v 0.6171 0.8985 -0.8985
v 0.6171 0.8985 0.8985
v 0.8667 -0.8667 -0.5853
v 0.8667 -0.8667 0.5853
v 0.8667 -0.5853 -0.8667
v 0.8667 -0.5853 0.8667
v 0.8667 0.5853 -0.8667
v 0.8667 0.5853 0.8667
v 0.8667 0.8667 -0.5853
v 0.8667 0.8667 0.5853
v 0.8985 -0.8985 -0.6171
v 0.8985 -0.8985 0.6171
v 0.8985 -0.6171 -0.8985
v 0.8985 -0.6171 0.8985
v 0.8985 0.6171 -0.8985
v 0.8985 0.6171 0.8985
v 0.8985 0.8985 -0.6171
v 0.8985 0.8985 0.6171
v 0.9448 -0.9448 -0.429
v 0.9448 -0.9448 0.429
v 0.9448 -0.429 -0.9448
v 0.9448 -0.429 0.9448
v 0.9448 0.429 -0.9448
v 0.9448 0.429 0.9448
v 0.9448 0.9448 -0.429
v 0.9448 0.9448 0.429
v 1 -1 -0.4142
v 1 -1 -0.2384
v 1 -1 0.2384
v 1 -1 0.4142
v 1 -0.4142 -1
v 1 -0.4142 1
v 1 -0.2384 -1
v 1 -0.2384 1
v 1 0.2384 -1
v 1 0.2384 1
v 1 0.4142 -1
v 1 0.4142 1
v 1 1 -0.4142
v 1 1 -0.2384
v 1 1 0.2384
v 1 1 0.4142
vn 0.57754 0.57697 0.57754
vn 0.57697 0.57754 0.57754
vn -0.86633 -0.35318 -0.35318
vn -0.35318 -0.86633 -0.35318
vn -0.35318 -0.86633 0.35318
vn -0.86633 -0.35318 0.35318
vn 0.57697 0.57754 -0.57754
vn 0.57754 0.57697 -0.57754
vn 0.57697 0.57754 0.57754
vn 0.57754 0.57754 0.57697
vn 0.57754 0.57754 -0.57697
vn 0.57697 0.57754 -0.57754
vn -0.35318 -0.35318 -0.86633
vn -0.86633 -0.35318 -0.35318
vn -0.86633 -0.35318 0.35318
vn -0.35318 -0.35318 0.86633
vn -0.86633 0.35318 -0.35318
vn -0.35318 0.35318 -0.86633
vn -0.35318 0.35318 0.86633
vn -0.86633 0.35318 0.35318
vn 0.57754 -0.57754 0.57697
vn 0.57697 -0.57754 0.57754
vn 0.57697 -0.57754 -0.57754
vn 0.57754 -0.57754 -0.57697
vn 0.57697 -0.57754 0.57754
vn 0.57754 -0.57697 0.57754
vn -0.35318 0.86633 -0.35318
vn -0.86633 0.35318 -0.35318
vn -0.86633 0.35318 0.35318
vn -0.35318 0.86633 0.35318
vn 0.57754 -0.57697 -0.57754
vn 0.57697 -0.57754 -0.57754
vn -0.57784 -0.5771 -0.5771
vn -0.5771 -0.57784 -0.5771
vn -0.35318 -0.86633 -0.35318
vn -0.86633 -0.35318 -0.35318
vn -0.35318 -0.86633 0.35318
vn -0.5771 -0.57784 0.5771
vn -0.57784 -0.5771 0.5771
vn -0.86633 -0.35318 0.35318
vn -0.35318 -0.35318 -0.86633
vn -0.5771 -0.5771 -0.57784
vn -0.57784 -0.5771 -0.5771
vn -0.86633 -0.35318 -0.35318
vn -0.57784 -0.5771 0.5771
vn -0.5771 -0.5771 0.57784
vn -0.35318 -0.35318 0.86633
vn -0.86633 -0.35318 0.35318
vn -0.57784 0.5771 -0.5771
vn -0.5771 0.5771 -0.57784
vn -0.35318 0.35318 -0.86633
vn -0.86633 0.35318 -0.35318
vn -0.35318 0.35318 0.86633
vn -0.5771 0.5771 0.57784
vn -0.57784 0.5771 0.5771
vn -0.86633 0.35318 0.35318
vn -0.35318 0.86633 -0.35318
vn -0.5771 0.57784 -0.5771
vn -0.57784 0.5771 -0.5771
vn -0.86633 0.35318 -0.35318
vn -0.57784 0.5771 0.5771
vn -0.5771 0.57784 0.5771
vn -0.35318 0.86633 0.35318
vn -0.86633 0.35318 0.35318
vn 0.40825 -0.8165 0.40825
vn -0.8165 0.40825 0.40825
vn 0.57697 0.57754 0.57754
vn 0.57754 0.57697 0.57754
vn 0.57697 0.57754 -0.57754
vn -0.8165 0.40825 -0.40825
vn 0.40825 -0.8165 -0.40825
vn 0.57754 0.57697 -0.57754
vn 0.57697 0.57754 0.57754
vn -0.8165 0.40825 0.40825
vn 0.40825 0.40825 -0.8165
vn 0.57754 0.57754 0.57697
vn 0.40825 0.40825 0.8165
vn -0.8165 0.40825 -0.40825
vn 0.57697 0.57754 -0.57754
vn 0.57754 0.57754 -0.57697
vn 0.40825 -0.40825 -0.8165
vn -0.8165 -0.40825 0.40825
vn 0.57697 -0.57754 0.57754
vn 0.57754 -0.57754 0.57697
vn 0.57697 -0.57754 -0.57754
vn -0.8165 -0.40825 -0.40825
vn 0.40825 -0.40825 0.8165
vn 0.57754 -0.57754 -0.57697
vn 0.57697 -0.57754 0.57754
vn -0.8165 -0.40825 0.40825
vn 0.40825 0.8165 0.40825
vn 0.57754 -0.57697 0.57754
vn 0.40825 0.8165 -0.40825
vn -0.8165 -0.40825 -0.40825
vn 0.57697 -0.57754 -0.57754
vn 0.57754 -0.57697 -0.57754
vn -0.8165 0.40825 0.40825
vn 0.40825 -0.8165 0.40825
vn -0.5771 -0.57784 -0.5771
vn -0.57784 -0.5771 -0.5771
vn -0.5771 -0.57784 0.5771
vn 0.40825 -0.8165 -0.40825
vn -0.8165 0.40825 -0.40825
vn -0.57784 -0.5771 0.5771
vn 0.40825 0.40825 -0.8165
vn -0.8165 0.40825 0.40825
vn -0.57784 -0.5771 -0.5771
vn -0.5771 -0.5771 -0.57784
vn -0.57784 -0.5771 0.5771
vn -0.8165 0.40825 -0.40825
vn 0.40825 0.40825 0.8165
vn -0.5771 -0.5771 0.57784
vn -0.57784 0.5771 -0.5771
vn -0.8165 -0.40825 0.40825
vn 0.40825 -0.40825 -0.8165
vn -0.5771 0.5771 -0.57784
vn 0.40825 -0.40825 0.8165
vn -0.8165 -0.40825 -0.40825
vn -0.57784 0.5771 0.5771
vn -0.5771 0.5771 0.57784
vn -0.5771 0.57784 -0.5771
vn 0.40825 0.8165 0.40825
vn -0.8165 -0.40825 0.40825
vn -0.57784 0.5771 -0.5771
vn -0.8165 -0.40825 -0.40825
vn 0.40825 0.8165 -0.40825
vn -0.5771 0.57784 0.5771
vn -0.57784 0.5771 0.5771
vn 0.57754 0.57754 0.57697
vn 0.40825 0.40825 -0.8165
vn 0.40825 -0.8165 0.40825
vn 0.57754 0.57697 0.57754
vn 0.40825 -0.8165 -0.40825
vn 0.40825 0.40825 0.8165
vn 0.57754 0.57754 -0.57697
vn 0.57754 0.57697 -0.57754
vn 0.57754 -0.57754 0.57697
vn 0.57754 -0.57697 0.57754
vn 0.40825 0.8165 0.40825
vn 0.40825 -0.40825 -0.8165
vn 0.40825 0.8165 -0.40825
vn 0.57754 -0.57697 -0.57754
vn 0.57754 -0.57754 -0.57697
vn 0.40825 -0.40825 0.8165
vn 0.40825 0.40825 -0.8165
vn -0.5771 -0.5771 -0.57784
vn -0.5771 -0.57784 -0.5771
vn 0.40825 -0.8165 0.40825
vn -0.5771 -0.57784 0.5771
vn -0.5771 -0.5771 0.57784
vn 0.40825 0.40825 0.8165
vn 0.40825 -0.8165 -0.40825
vn 0.40825 0.8165 0.40825
vn -0.5771 0.57784 -0.5771
vn -0.5771 0.5771 -0.57784
vn 0.40825 -0.40825 -0.8165
vn -0.5771 0.5771 0.57784
vn -0.5771 0.57784 0.5771
vn 0.40825 0.8165 -0.40825
vn 0.40825 -0.40825 0.8165
vn -0.5771 -0.57784 -0.5771
vn -0.5771 -0.5771 -0.57784
vn -0.35318 -0.35318 -0.86633
vn -0.35318 -0.86633 -0.35318
vn -0.35318 -0.35318 0.86633
vn -0.5771 -0.5771 0.57784
vn -0.5771 -0.57784 0.5771
vn -0.35318 -0.86633 0.35318
vn -0.5771 0.5771 -0.57784
vn -0.5771 0.57784 -0.5771
vn -0.35318 0.86633 -0.35318
vn -0.35318 0.35318 -0.86633
vn -0.35318 0.86633 0.35318
vn -0.5771 0.57784 0.5771
vn -0.5771 0.5771 0.57784
vn -0.35318 0.35318 0.86633
vn 0.57754 0.57754 0.57697
vn 0.57754 0.57697 0.57754
vn 0.57754 0.57697 -0.57754
vn 0.57754 0.57754 -0.57697
vn 0.57754 -0.57697 0.57754
vn 0.57754 -0.57754 0.57697
vn 0.57754 -0.57754 -0.57697
vn 0.57754 -0.57697 -0.57754
vn -0.35318 -0.86633 -0.35318
vn -0.35318 -0.35318 -0.86633
vn -0.35318 -0.35318 0.86633
vn -0.35318 -0.86633 0.35318
vn -0.35318 0.35318 -0.86633
vn -0.35318 0.86633 -0.35318
vn -0.35318 0.86633 0.35318
vn -0.35318 0.35318 0.86633
vn 0.35318 -0.35318 -0.86633
vn 0.35318 -0.86633 -0.35318
vn 0.35318 -0.86633 0.35318
vn 0.35318 -0.35318 0.86633
vn 0.35318 0.86633 -0.35318
vn 0.35318 0.35318 -0.86633
vn 0.35318 0.35318 0.86633
vn 0.35318 0.86633 0.35318
vn -0.57754 0.57697 0.57754
vn -0.57754 0.57754 0.57697
vn -0.57754 0.57754 -0.57697
vn -0.57754 0.57697 -0.57754
vn -0.57754 -0.57754 0.57697
vn -0.57754 -0.57697 0.57754
vn -0.57754 -0.57697 -0.57754
vn -0.57754 -0.57754 -0.57697
vn 0.5771 -0.5771 -0.57784
vn 0.5771 -0.57784 -0.5771
vn 0.35318 -0.86633 -0.35318
vn 0.35318 -0.35318 -0.86633
vn 0.35318 -0.86633 0.35318
vn 0.5771 -0.57784 0.5771
vn 0.5771 -0.5771 0.57784
vn 0.35318 -0.35318 0.86633
vn 0.35318 0.86633 -0.35318
vn 0.5771 0.57784 -0.5771
vn 0.5771 0.5771 -0.57784
vn 0.35318 0.35318 -0.86633
vn 0.5771 0.5771 0.57784
vn 0.5771 0.57784 0.5771
vn 0.35318 0.86633 0.35318
vn 0.35318 0.35318 0.86633
vn -0.40825 0.40825 -0.8165
vn -0.40825 -0.8165 0.40825
vn 0.5771 -0.57784 -0.5771
vn 0.5771 -0.5771 -0.57784
vn 0.5771 -0.57784 0.5771
vn -0.40825 -0.8165 -0.40825
vn -0.40825 0.40825 0.8165
vn 0.5771 -0.5771 0.57784
vn 0.5771 0.57784 -0.5771
vn -0.40825 0.8165 0.40825
vn -0.40825 -0.40825 -0.8165
vn 0.5771 0.5771 -0.57784
vn -0.40825 -0.40825 0.8165
vn -0.40825 0.8165 -0.40825
vn 0.5771 0.57784 0.5771
vn 0.5771 0.5771 0.57784
vn -0.40825 -0.8165 0.40825
vn -0.40825 0.40825 -0.8165
vn -0.57754 0.57754 0.57697
vn -0.57754 0.57697 0.57754
vn -0.57754 0.57754 -0.57697
vn -0.40825 0.40825 0.8165
vn -0.40825 -0.8165 -0.40825
vn -0.57754 0.57697 -0.57754
vn -0.57754 -0.57754 0.57697
vn -0.40825 -0.40825 -0.8165
vn -0.40825 0.8165 0.40825
vn -0.57754 -0.57697 0.57754
vn -0.40825 0.8165 -0.40825
vn -0.40825 -0.40825 0.8165
vn -0.57754 -0.57754 -0.57697
vn -0.57754 -0.57697 -0.57754
vn 0.8165 0.40825 0.40825
vn 0.57784 -0.5771 -0.5771
vn 0.5771 -0.57784 -0.5771
vn -0.40825 -0.8165 0.40825
vn 0.5771 -0.57784 0.5771
vn 0.57784 -0.5771 0.5771
vn 0.8165 0.40825 -0.40825
vn -0.40825 -0.8165 -0.40825
vn 0.5771 -0.5771 -0.57784
vn 0.57784 -0.5771 -0.5771
vn 0.8165 0.40825 0.40825
vn -0.40825 0.40825 -0.8165
vn 0.8165 0.40825 -0.40825
vn 0.57784 -0.5771 0.5771
vn 0.5771 -0.5771 0.57784
vn -0.40825 0.40825 0.8165
vn 0.8165 -0.40825 0.40825
vn 0.57784 0.5771 -0.5771
vn 0.5771 0.5771 -0.57784
vn -0.40825 -0.40825 -0.8165
vn 0.5771 0.5771 0.57784
vn 0.57784 0.5771 0.5771
vn 0.8165 -0.40825 -0.40825
vn -0.40825 -0.40825 0.8165
vn 0.5771 0.57784 -0.5771
vn 0.57784 0.5771 -0.5771
vn 0.8165 -0.40825 0.40825
vn -0.40825 0.8165 0.40825
vn 0.8165 -0.40825 -0.40825
vn 0.57784 0.5771 0.5771
vn 0.5771 0.57784 0.5771
vn -0.40825 0.8165 -0.40825
vn -0.57697 0.57754 0.57754
vn 0.8165 0.40825 0.40825
vn -0.40825 -0.8165 0.40825
vn -0.57754 0.57697 0.57754
vn -0.40825 -0.8165 -0.40825
vn 0.8165 0.40825 -0.40825
vn -0.57697 0.57754 -0.57754
vn -0.57754 0.57697 -0.57754
vn 0.8165 0.40825 0.40825
vn -0.57697 0.57754 0.57754
vn -0.57754 0.57754 0.57697
vn -0.40825 0.40825 -0.8165
vn -0.57754 0.57754 -0.57697
vn -0.57697 0.57754 -0.57754
vn 0.8165 0.40825 -0.40825
vn -0.40825 0.40825 0.8165
vn -0.57754 -0.57754 0.57697
vn -0.57697 -0.57754 0.57754
vn 0.8165 -0.40825 0.40825
vn -0.40825 -0.40825 -0.8165
vn 0.8165 -0.40825 -0.40825
vn -0.57697 -0.57754 -0.57754
vn -0.57754 -0.57754 -0.57697
vn -0.40825 -0.40825 0.8165
vn -0.40825 0.8165 0.40825
vn 0.8165 -0.40825 0.40825
vn -0.57697 -0.57754 0.57754
vn -0.57754 -0.57697 0.57754
vn -0.57697 -0.57754 -0.57754
vn 0.8165 -0.40825 -0.40825
vn -0.40825 0.8165 -0.40825
vn -0.57754 -0.57697 -0.57754
vn 0.5771 -0.57784 -0.5771
vn 0.57784 -0.5771 -0.5771
vn 0.86633 -0.35318 -0.35318
vn 0.35318 -0.86633 -0.35318
vn 0.86633 -0.35318 0.35318
vn 0.57784 -0.5771 0.5771
vn 0.5771 -0.57784 0.5771
vn 0.35318 -0.86633 0.35318
vn 0.86633 -0.35318 -0.35318
vn 0.57784 -0.5771 -0.5771
vn 0.5771 -0.5771 -0.57784
vn 0.35318 -0.35318 -0.86633
vn 0.5771 -0.5771 0.57784
vn 0.57784 -0.5771 0.5771
vn 0.86633 -0.35318 0.35318
vn 0.35318 -0.35318 0.86633
vn 0.5771 0.5771 -0.57784
vn 0.57784 0.5771 -0.5771
vn 0.86633 0.35318 -0.35318
vn 0.35318 0.35318 -0.86633
vn 0.86633 0.35318 0.35318
vn 0.57784 0.5771 0.5771
vn 0.5771 0.5771 0.57784
vn 0.35318 0.35318 0.86633
vn 0.86633 0.35318 -0.35318
vn 0.57784 0.5771 -0.5771
vn 0.5771 0.57784 -0.5771
vn 0.35318 0.86633 -0.35318
vn 0.5771 0.57784 0.5771
vn 0.57784 0.5771 0.5771
vn 0.86633 0.35318 0.35318
vn 0.35318 0.86633 0.35318
vn -0.57697 0.57754 0.57754
vn -0.57754 0.57697 0.57754
vn 0.35318 -0.86633 -0.35318
vn 0.86633 -0.35318 -0.35318
vn 0.86633 -0.35318 0.35318
vn 0.35318 -0.86633 0.35318
vn -0.57754 0.57697 -0.57754
vn -0.57697 0.57754 -0.57754
vn -0.57754 0.57754 0.57697
vn -0.57697 0.57754 0.57754
vn -0.57697 0.57754 -0.57754
vn -0.57754 0.57754 -0.57697
vn 0.86633 -0.35318 -0.35318
vn 0.35318 -0.35318 -0.86633
vn 0.35318 -0.35318 0.86633
vn 0.86633 -0.35318 0.35318
vn 0.35318 0.35318 -0.86633
vn 0.86633 0.35318 -0.35318
vn 0.86633 0.35318 0.35318
vn 0.35318 0.35318 0.86633
vn -0.57697 -0.57754 0.57754
vn -0.57754 -0.57754 0.57697
vn -0.57754 -0.57754 -0.57697
vn -0.57697 -0.57754 -0.57754
vn -0.57754 -0.57697 0.57754
vn -0.57697 -0.57754 0.57754
vn 0.86633 0.35318 -0.35318
vn 0.35318 0.86633 -0.35318
vn 0.35318 0.86633 0.35318
vn 0.86633 0.35318 0.35318
vn -0.57697 -0.57754 -0.57754
vn -0.57754 -0.57697 -0.57754
f 24//62 40//127 48//158 52//174
f 40//126 32//93 44//141 48//159
f 16//32 32//95 30//85 12//23
f 22//55 38//119 40//128 24//61
f 38//118 30//86 32//94 40//125
f 12//24 30//88 44//143 56//183
f 52//175 48//157 38//120 22//54
f 48//160 44//144 30//87 38//117
f 56//184 44//142 32//96 16//31
f 52//173 60//191 15//30 24//63
f 10//19 60//192 52//176 22//53
f 24//64 15//29 10//20 22//56
f 97//321 69//210 73//227 81//259
f 81//260 73//226 77//241 89//291
f 105//353 109//362 91//298 89//289
f 99//330 97//322 81//258 83//266
f 83//267 81//257 89//290 91//297
f 109//361 65//202 77//243 91//299
f 69//209 99//331 83//265 73//228
f 73//225 83//268 91//300 77//242
f 65//201 105//354 89//292 77//244
f 69//211 97//324 106//355 61//194
f 111//366 99//332 69//212 61//193
f 97//323 99//329 111//365 106//356
f 103//347 87//281 75//233 71//218
f 87//284 95//313 79//251 75//234
f 117//378 95//315 93//306 115//373
f 101//338 85//274 87//282 103//346
f 85//273 93//307 95//314 87//283
f 115//374 93//305 79//249 67//205
f 71//219 75//236 85//275 101//337
f 75//235 79//250 93//308 85//276
f 67//206 79//252 95//316 117//377
f 71//217 63//197 118//380 103//348
f 113//369 63//198 71//220 101//340
f 103//345 118//379 113//370 101//339
f 23//58 51//170 47//154 39//121
f 39//122 47//153 43//139 31//91
f 13//25 11//22 29//83 31//89
f 21//49 23//59 39//124 37//113
f 37//114 39//123 31//90 29//82
f 11//21 55//182 43//137 29//84
f 51//169 21//50 37//116 47//155
f 47//156 37//115 29//81 43//140
f 55//181 13//26 31//92 43//138
f 51//171 23//57 14//27 59//190
f 9//18 21//51 51//172 59//189
f 23//60 21//52 9//17 14//28
f 17//34 33//99 45//147 49//161
f 33//98 25//65 41//131 45//148
f 1//2 25//67 27//73 5//9
f 19//43 35//107 33//100 17//33
f 35//106 27//74 25//66 33//97
f 5//10 27//76 41//129 53//177
f 49//162 45//146 35//108 19//42
f 45//145 41//130 27//75 35//105
f 53//178 41//132 25//68 1//1
f 49//164 57//185 2//4 17//35
f 7//13 57//186 49//163 19//41
f 17//36 2//3 7//14 19//44
f 18//38 50//167 46//149 34//101
f 34//102 46//152 42//133 26//71
f 4//7 6//12 28//79 26//69
f 20//45 18//39 34//104 36//109
f 36//110 34//103 26//70 28//78
f 6//11 54//180 42//135 28//80
f 50//166 20//46 36//112 46//150
f 46//151 36//111 28//77 42//134
f 54//179 4//8 26//72 42//136
f 50//168 18//37 3//5 58//188
f 8//16 20//47 50//165 58//187
f 18//40 20//48 8//15 3//6
f 104//349 72//222 76//239 88//287
f 88//288 76//238 80//253 96//319
f 120//383 116//376 94//310 96//317
f 102//342 104//350 88//286 86//278
f 86//279 88//285 96//318 94//309
f 116//375 68//208 80//255 94//311
f 72//221 102//343 86//277 76//240
f 76//237 86//280 94//312 80//254
f 68//207 120//384 96//320 80//256
f 72//223 104//352 119//381 64//200
f 114//372 102//344 72//224 64//199
f 104//351 102//341 114//371 119//382
f 98//327 82//261 74//229 70//214
f 82//264 90//293 78//247 74//230
f 108//360 90//295 92//302 110//363
f 100//334 84//270 82//262 98//326
f 84//269 92//303 90//294 82//263
f 110//364 92//301 78//245 66//203
f 70//215 74//232 84//271 100//333
f 74//231 78//246 92//304 84//272
f 66//204 78//248 90//296 108//359
f 70//213 62//195 107//358 98//328
f 112//367 62//196 70//216 100//336
f 98//325 107//357 112//368 100//335
